<?xml version="1.0" encoding="UTF-8" standalone="no"?>
<svg width="1800px" height="360px" viewBox="0 0 1800 360"
 xmlns="http://www.w3.org/2000/svg" xmlns:xlink="http://www.w3.org/1999/xlink" version="1.2" baseProfile="tiny">
<title>svg_template</title>
<desc>Generated by MuseScore Studio 4.4.4</desc>
<path class="" fill="#ffffff" fill-rule="evenodd" d="M0,0 L1800,0 L1800,360 L0,360 L0,0 "/>
<polyline class="StaffLines" fill="none" stroke="#000000" stroke-width="2.77" stroke-linejoin="bevel" points="126,132.272 1710,132.272"/>
<polyline class="StaffLines" fill="none" stroke="#000000" stroke-width="2.77" stroke-linejoin="bevel" points="126,157.472 1710,157.472"/>
<polyline class="StaffLines" fill="none" stroke="#000000" stroke-width="2.77" stroke-linejoin="bevel" points="126,182.672 1710,182.672"/>
<polyline class="StaffLines" fill="none" stroke="#000000" stroke-width="2.77" stroke-linejoin="bevel" points="126,207.872 1710,207.872"/>
<polyline class="StaffLines" fill="none" stroke="#000000" stroke-width="2.77" stroke-linejoin="bevel" points="126,233.072 1710,233.072"/>
<polyline class="BarLine" fill="none" stroke="#000000" stroke-width="4.54" stroke-linejoin="bevel" points="1707.73,130.886 1707.73,234.458"/>
<polyline class="Stem" fill="none" stroke="#000000" stroke-width="2.52" stroke-linejoin="bevel" points="303.88,203.84 303.88,119.672"/>
<polyline class="Stem" fill="none" stroke="#000000" stroke-width="2.52" stroke-linejoin="bevel" points="590.494,203.84 590.494,119.672"/>
<polyline class="Stem" fill="none" stroke="#000000" stroke-width="2.52" stroke-linejoin="bevel" points="877.108,203.84 877.108,119.672"/>
<polyline class="Stem" fill="none" stroke="#000000" stroke-width="2.52" stroke-linejoin="bevel" points="1163.72,203.84 1163.72,132.272"/>
<polyline class="Stem" fill="none" stroke="#000000" stroke-width="2.52" stroke-linejoin="bevel" points="1354.8,203.84 1354.8,132.272"/>
<polyline class="Stem" fill="none" stroke="#000000" stroke-width="2.52" stroke-linejoin="bevel" points="1545.87,203.84 1545.87,132.272"/>
<path class="Note" transform="matrix(1.008,0,0,1.008,272.396,207.872)" d="M0,4.2 C0,8.5 3.1,13.3 11.2,13.3 C21.6,13.3 32.5,4.8 32.5,-4 C32.5,-9.9 27.5,-13.2 21.3,-13.2 C11.6,-13.2 0,-5 0,4.2"/>
<path class="Note" transform="matrix(1.008,0,0,1.008,559.01,207.872)" d="M0,4.2 C0,8.5 3.1,13.3 11.2,13.3 C21.6,13.3 32.5,4.8 32.5,-4 C32.5,-9.9 27.5,-13.2 21.3,-13.2 C11.6,-13.2 0,-5 0,4.2"/>
<path class="Note" transform="matrix(1.008,0,0,1.008,845.623,207.872)" d="M0,4.2 C0,8.5 3.1,13.3 11.2,13.3 C21.6,13.3 32.5,4.8 32.5,-4 C32.5,-9.9 27.5,-13.2 21.3,-13.2 C11.6,-13.2 0,-5 0,4.2"/>
<path class="Note" transform="matrix(1.008,0,0,1.008,1132.24,207.872)" d="M0,4.2 C0,8.5 3.1,13.3 11.2,13.3 C21.6,13.3 32.5,4.8 32.5,-4 C32.5,-9.9 27.5,-13.2 21.3,-13.2 C11.6,-13.2 0,-5 0,4.2"/>
<path class="Note" transform="matrix(1.008,0,0,1.008,1323.31,207.872)" d="M0,4.2 C0,8.5 3.1,13.3 11.2,13.3 C21.6,13.3 32.5,4.8 32.5,-4 C32.5,-9.9 27.5,-13.2 21.3,-13.2 C11.6,-13.2 0,-5 0,4.2"/>
<path class="Note" transform="matrix(1.008,0,0,1.008,1514.39,207.872)" d="M0,4.2 C0,8.5 3.1,13.3 11.2,13.3 C21.6,13.3 32.5,4.8 32.5,-4 C32.5,-9.9 27.5,-13.2 21.3,-13.2 C11.6,-13.2 0,-5 0,4.2"/>
<path class="Clef" transform="matrix(1.008,0,0,1.008,144.9,207.872)" d="M12.3,51.3 C12.3,57.9 17.3,66.6 30.8,66.6 C35.5,66.6 39.6,65.4 43.2,63.2 C48.6,59.4 50,52.8 50,46.5 C50,42.6 49.4,38.1 48.4,32.4 C48.1,30.4 47.5,27.4 46.9,23.5 C56.7,20.3 64,10.1 64,-0.2 C64,-15.3 53.3,-25.5 38.7,-25.5 C37.7,-31.5 36.7,-37.4 35.9,-43 C46.4,-54.1 53.7,-66.6 53.7,-82.5 C53.7,-91.6 50.9,-99 49.3,-102.6 C46.9,-107.7 44,-111.2 42.2,-111.2 C41.5,-111.2 38.4,-110 35.1,-106.1 C28.7,-98.5 26.9,-85.7 26.9,-77.3 C26.9,-71.9 27.4,-67 29.1,-55.8 C29,-55.7 23.8,-50.4 21.7,-48.7 C12.6,-40.3 0,-28.1 0,-8.1 C0,10.6 16.3,25.3 34.9,25.3 C37.8,25.3 40.5,25 42.8,24.6 C44.7,34.2 45.9,41.2 45.9,46.5 C45.9,56.9 40.5,62.4 30.4,62.4 C28,62.4 25.9,61.9 25.7,61.9 C25.6,61.8 25.4,61.7 25.4,61.6 C25.4,61.4 25.6,61.3 25.9,61.3 C30.6,60.5 35.3,56.5 35.3,50.1 C35.3,44.7 31.2,39 23.7,39 C16.7,39 12.3,44.7 12.3,51.3 M33.2,-82.2 C34.1,-86.2 38.7,-96.7 43.9,-96.7 C45.4,-96.7 47.8,-91.9 47.8,-84.9 C47.8,-74.5 40.1,-66.7 33.2,-59.9 C32.6,-63.9 32.1,-67.8 32.1,-72 C32.1,-75.7 32.4,-79.1 33.2,-82.2 M42,20.6 C40,21 38.1,21.2 36.2,21.2 C21.9,21.2 9.7,11.2 9.7,-3.9 C9.7,-16.1 18.3,-27 27.1,-34.6 C28.8,-36.1 30.4,-37.5 31.9,-39 C32.8,-33.6 33.5,-28.9 34.2,-24.8 C25.1,-22.1 18.9,-12.5 18.9,-3.1 C18.9,3.9 24.4,13.5 32.4,13.5 C33.2,13.5 34.1,13.1 34.1,12.2 C34.1,11.3 33.1,10.8 31.9,10 C28,7.6 25.8,5 25.8,0.1 C25.8,-6 30.4,-10.9 36.2,-12.3 L42,20.6 M56.2,2.1 C56.2,9.2 53.3,16.5 46.2,19.4 C44.1,7.4 41.4,-8.5 40.7,-12.9 C49.7,-12.9 56.2,-6.8 56.2,2.1"/>
<path class="Beam" fill-rule="evenodd" d="M1162.46,125.972 L1547.13,125.972 L1547.13,138.572 L1162.46,138.572 L1162.46,125.972 "/>
<path class="Tuplet" d="M594.45,87.2919 C596.565,86.6169 597.42,86.2569 598.5,85.5369 C600.615,84.1419 601.92,81.6669 601.92,79.1469 C601.92,74.8719 598.5,71.9919 593.46,71.9919 C588.555,71.9919 584.415,75.0519 584.415,78.7419 C584.415,80.5869 585.54,81.8469 587.25,81.8469 C588.735,81.8469 589.815,80.7669 589.815,79.2819 C589.815,78.5169 589.59,77.9769 588.87,77.2569 C588.42,76.8519 588.24,76.5369 588.24,76.2219 C588.24,75.1419 590.49,74.0169 592.605,74.0169 C595.62,74.0169 597.42,75.6819 597.42,78.4719 C597.42,82.4769 594.585,86.2569 591.57,86.2569 C591.435,86.2569 591.03,86.2119 590.535,86.1669 C589.23,86.0769 589.23,86.0769 588.96,86.0769 C587.97,86.0769 587.43,86.5269 587.43,87.3369 C587.43,88.0569 587.925,88.5069 588.735,88.5069 C588.96,88.5069 589.275,88.4619 589.635,88.4169 C590.265,88.2819 590.94,88.2369 591.345,88.2369 C593.46,88.2369 594.9,90.1269 594.9,92.9169 C594.9,97.7769 592.515,102.457 587.07,102.457 C584.55,102.457 582.39,101.197 582.39,99.7569 C582.39,99.2619 582.57,99.0819 583.29,98.7669 C584.595,98.1819 585.135,97.3719 585.135,96.1569 C585.135,94.5819 583.875,93.3669 582.255,93.3669 C580.32,93.3669 579.06,94.8969 579.06,97.2369 C579.06,101.602 582.39,104.347 587.79,104.347 C594.585,104.347 599.76,99.8019 599.76,93.7719 C599.76,90.2619 597.6,88.2819 594.45,87.2919"/>
<polyline class="Tuplet" fill="none" stroke="#000000" stroke-width="2.52" stroke-linejoin="miter" stroke-miterlimit="2" points="291.281,107.072 291.281,88.1719 566.464,88.1719"/>
<polyline class="Tuplet" fill="none" stroke="#000000" stroke-width="2.52" stroke-linejoin="miter" stroke-miterlimit="2" points="614.524,88.1719 889.708,88.1719 889.708,107.072"/>
<path class="Tuplet" d="M1357.49,93.5919 C1359.61,92.9169 1360.46,92.5569 1361.54,91.8369 C1363.66,90.4419 1364.96,87.9669 1364.96,85.4469 C1364.96,81.1719 1361.54,78.2919 1356.5,78.2919 C1351.6,78.2919 1347.46,81.3519 1347.46,85.0419 C1347.46,86.8869 1348.58,88.1469 1350.29,88.1469 C1351.78,88.1469 1352.86,87.0669 1352.86,85.5819 C1352.86,84.8169 1352.63,84.2769 1351.91,83.5569 C1351.46,83.1519 1351.28,82.8369 1351.28,82.5219 C1351.28,81.4419 1353.53,80.3169 1355.65,80.3169 C1358.66,80.3169 1360.46,81.9819 1360.46,84.7719 C1360.46,88.7769 1357.63,92.5569 1354.61,92.5569 C1354.48,92.5569 1354.07,92.5119 1353.58,92.4669 C1352.27,92.3769 1352.27,92.3769 1352,92.3769 C1351.01,92.3769 1350.47,92.8269 1350.47,93.6369 C1350.47,94.3569 1350.97,94.8069 1351.78,94.8069 C1352,94.8069 1352.32,94.7619 1352.68,94.7169 C1353.31,94.5819 1353.98,94.5369 1354.39,94.5369 C1356.5,94.5369 1357.94,96.4269 1357.94,99.2169 C1357.94,104.077 1355.56,108.757 1350.11,108.757 C1347.59,108.757 1345.43,107.497 1345.43,106.057 C1345.43,105.562 1345.61,105.382 1346.33,105.067 C1347.64,104.482 1348.18,103.672 1348.18,102.457 C1348.18,100.882 1346.92,99.6669 1345.3,99.6669 C1343.36,99.6669 1342.1,101.197 1342.1,103.537 C1342.1,107.902 1345.43,110.647 1350.83,110.647 C1357.63,110.647 1362.8,106.102 1362.8,100.072 C1362.8,96.5619 1360.64,94.5819 1357.49,93.5919"/>
</svg>
