<?xml version="1.0" encoding="UTF-8" standalone="no"?>
<svg width="1800px" height="360px" viewBox="0 0 1800 360"
 xmlns="http://www.w3.org/2000/svg" xmlns:xlink="http://www.w3.org/1999/xlink" version="1.2" baseProfile="tiny">
<title>svg_template</title>
<desc>Generated by MuseScore Studio 4.4.4</desc>
<path class="" fill="#ffffff" fill-rule="evenodd" d="M0,0 L1800,0 L1800,360 L0,360 L0,0 "/>
<polyline class="StaffLines" fill="none" stroke="#000000" stroke-width="2.38" stroke-linejoin="bevel" points="108,114.204 1710,114.204"/>
<polyline class="StaffLines" fill="none" stroke="#000000" stroke-width="2.38" stroke-linejoin="bevel" points="108,135.804 1710,135.804"/>
<polyline class="StaffLines" fill="none" stroke="#000000" stroke-width="2.38" stroke-linejoin="bevel" points="108,157.404 1710,157.404"/>
<polyline class="StaffLines" fill="none" stroke="#000000" stroke-width="2.38" stroke-linejoin="bevel" points="108,179.004 1710,179.004"/>
<polyline class="StaffLines" fill="none" stroke="#000000" stroke-width="2.38" stroke-linejoin="bevel" points="108,200.604 1710,200.604"/>
<polyline class="BarLine" fill="none" stroke="#000000" stroke-width="3.89" stroke-linejoin="bevel" points="1688.18,113.016 1688.18,201.792"/>
<polyline class="BarLine" fill="none" stroke="#000000" stroke-width="11.88" stroke-linejoin="bevel" points="1704.06,113.016 1704.06,201.792"/>
<polyline class="LedgerLine" fill="none" stroke="#000000" stroke-width="3.46" stroke-linejoin="bevel" points="226.355,222.204 268.677,222.204"/>
<polyline class="Stem" fill="none" stroke="#000000" stroke-width="2.16" stroke-linejoin="bevel" points="260.469,218.748 260.469,146.604"/>
<polyline class="Stem" fill="none" stroke="#000000" stroke-width="2.16" stroke-linejoin="bevel" points="570.21,207.948 570.21,135.804"/>
<polyline class="Stem" fill="none" stroke="#000000" stroke-width="2.16" stroke-linejoin="bevel" points="879.952,197.148 879.952,125.004"/>
<polyline class="Stem" fill="none" stroke="#000000" stroke-width="2.16" stroke-linejoin="bevel" points="1189.69,186.348 1189.69,119.582"/>
<polyline class="Stem" fill="none" stroke="#000000" stroke-width="2.16" stroke-linejoin="bevel" points="1451.46,175.548 1451.46,114.226"/>
<path class="Note" transform="matrix(0.864,0,0,0.864,233.483,222.204)" d="M0,4.2 C0,8.5 3.1,13.3 11.2,13.3 C21.6,13.3 32.5,4.8 32.5,-4 C32.5,-9.9 27.5,-13.2 21.3,-13.2 C11.6,-13.2 0,-5 0,4.2"/>
<path class="Note" transform="matrix(0.864,0,0,0.864,543.224,211.404)" d="M0,4.2 C0,8.5 3.1,13.3 11.2,13.3 C21.6,13.3 32.5,4.8 32.5,-4 C32.5,-9.9 27.5,-13.2 21.3,-13.2 C11.6,-13.2 0,-5 0,4.2"/>
<path class="Note" transform="matrix(0.864,0,0,0.864,852.965,200.604)" d="M0,4.2 C0,8.5 3.1,13.3 11.2,13.3 C21.6,13.3 32.5,4.8 32.5,-4 C32.5,-9.9 27.5,-13.2 21.3,-13.2 C11.6,-13.2 0,-5 0,4.2"/>
<path class="Note" transform="matrix(0.864,0,0,0.864,1162.71,189.804)" d="M0,4.2 C0,8.5 3.1,13.3 11.2,13.3 C21.6,13.3 32.5,4.8 32.5,-4 C32.5,-9.9 27.5,-13.2 21.3,-13.2 C11.6,-13.2 0,-5 0,4.2"/>
<path class="Note" transform="matrix(0.864,0,0,0.864,1424.47,179.004)" d="M0,4.2 C0,8.5 3.1,13.3 11.2,13.3 C21.6,13.3 32.5,4.8 32.5,-4 C32.5,-9.9 27.5,-13.2 21.3,-13.2 C11.6,-13.2 0,-5 0,4.2"/>
<path class="Clef" transform="matrix(0.864,0,0,0.864,124.2,179.004)" d="M12.3,51.3 C12.3,57.9 17.3,66.6 30.8,66.6 C35.5,66.6 39.6,65.4 43.2,63.2 C48.6,59.4 50,52.8 50,46.5 C50,42.6 49.4,38.1 48.4,32.4 C48.1,30.4 47.5,27.4 46.9,23.5 C56.7,20.3 64,10.1 64,-0.2 C64,-15.3 53.3,-25.5 38.7,-25.5 C37.7,-31.5 36.7,-37.4 35.9,-43 C46.4,-54.1 53.7,-66.6 53.7,-82.5 C53.7,-91.6 50.9,-99 49.3,-102.6 C46.9,-107.7 44,-111.2 42.2,-111.2 C41.5,-111.2 38.4,-110 35.1,-106.1 C28.7,-98.5 26.9,-85.7 26.9,-77.3 C26.9,-71.9 27.4,-67 29.1,-55.8 C29,-55.7 23.8,-50.4 21.7,-48.7 C12.6,-40.3 0,-28.1 0,-8.1 C0,10.6 16.3,25.3 34.9,25.3 C37.8,25.3 40.5,25 42.8,24.6 C44.7,34.2 45.9,41.2 45.9,46.5 C45.9,56.9 40.5,62.4 30.4,62.4 C28,62.4 25.9,61.9 25.7,61.9 C25.6,61.8 25.4,61.7 25.4,61.6 C25.4,61.4 25.6,61.3 25.9,61.3 C30.6,60.5 35.3,56.5 35.3,50.1 C35.3,44.7 31.2,39 23.7,39 C16.7,39 12.3,44.7 12.3,51.3 M33.2,-82.2 C34.1,-86.2 38.7,-96.7 43.9,-96.7 C45.4,-96.7 47.8,-91.9 47.8,-84.9 C47.8,-74.5 40.1,-66.7 33.2,-59.9 C32.6,-63.9 32.1,-67.8 32.1,-72 C32.1,-75.7 32.4,-79.1 33.2,-82.2 M42,20.6 C40,21 38.1,21.2 36.2,21.2 C21.9,21.2 9.7,11.2 9.7,-3.9 C9.7,-16.1 18.3,-27 27.1,-34.6 C28.8,-36.1 30.4,-37.5 31.9,-39 C32.8,-33.6 33.5,-28.9 34.2,-24.8 C25.1,-22.1 18.9,-12.5 18.9,-3.1 C18.9,3.9 24.4,13.5 32.4,13.5 C33.2,13.5 34.1,13.1 34.1,12.2 C34.1,11.3 33.1,10.8 31.9,10 C28,7.6 25.8,5 25.8,0.1 C25.8,-6 30.4,-10.9 36.2,-12.3 L42,20.6 M56.2,2.1 C56.2,9.2 53.3,16.5 46.2,19.4 C44.1,7.4 41.4,-8.5 40.7,-12.9 C49.7,-12.9 56.2,-6.8 56.2,2.1"/>
<path class="Dynamic" d="M239.553,286.372 C237.231,286.372 235.081,288.522 235.081,290.844 C235.081,295.316 238.091,297.81 242.047,297.81 C244.799,297.81 246.777,296.95 248.927,294.8 C252.711,291.016 256.839,278.202 258.903,270.892 C259.677,268.14 260.451,265.474 261.053,263.496 L261.053,263.324 L267.245,263.324 C267.761,263.324 268.105,262.98 268.105,262.464 L268.105,260.572 C268.105,260.056 267.761,259.712 267.245,259.712 L262.171,259.712 L262.171,259.454 C264.579,250.682 265.267,249.134 266.557,248.102 C267.245,247.586 267.847,247.414 268.277,247.414 C268.449,247.414 268.621,247.5 268.707,247.5 C269.223,247.586 269.653,248.102 269.653,248.618 C269.653,249.048 269.481,249.478 269.137,249.65 C268.277,250.338 267.847,251.456 267.847,252.66 C267.847,253.09 267.933,253.434 268.019,253.864 C268.277,254.638 268.965,255.412 269.825,255.756 C270.169,255.928 270.771,256.1 271.373,256.1 C273.179,256.1 274.985,254.724 275.415,253.004 C275.587,252.574 275.587,252.058 275.587,251.542 C275.587,247.242 271.717,245.006 267.847,245.006 C259.849,245.006 256.323,253.176 254.173,259.54 L254.173,259.712 L247.637,259.712 C247.121,259.712 246.777,260.056 246.777,260.572 L246.777,262.464 C246.777,262.98 247.121,263.324 247.637,263.324 L252.969,263.324 L252.969,263.668 C252.109,267.108 251.421,270.032 250.819,272.87 C250.131,276.052 249.357,279.32 248.325,283.276 L248.067,284.308 C246.261,291.36 245.745,293.854 243.681,295.23 C243.251,295.488 242.735,295.66 242.219,295.66 C241.789,295.66 241.359,295.488 241.015,295.23 C240.671,294.972 240.585,294.714 240.585,294.284 C240.671,293.94 240.843,293.596 241.273,293.424 C242.907,292.736 243.423,291.188 243.423,289.812 C243.423,288.608 242.649,286.372 239.553,286.372 M243.853,277.428 C243.423,278.202 242.993,278.374 242.563,278.374 C242.391,278.374 242.305,278.374 242.133,278.288 C241.703,278.116 241.531,277.772 241.531,277.342 C241.531,276.654 242.649,272.612 242.993,271.838 C243.509,270.29 244.111,266.764 244.111,264.442 C244.111,264.012 244.111,263.582 244.025,263.238 C243.595,260.916 242.563,259.798 240.757,259.798 C238.521,259.798 236.113,261.432 234.995,262.894 L234.823,263.238 L234.651,262.808 C234.651,262.808 233.275,259.798 230.953,259.798 C228.545,259.798 226.739,260.744 225.277,262.722 L225.019,263.066 L224.933,262.636 C224.933,262.636 223.815,260.142 221.665,259.712 C221.235,259.626 220.805,259.626 220.461,259.626 C216.935,259.626 215.043,263.238 214.097,266.162 L215.387,266.85 C215.387,266.85 216.849,262.206 218.741,262.206 C218.913,262.206 218.999,262.206 219.171,262.292 C219.687,262.464 219.859,262.894 219.859,263.582 C219.859,264.786 219.171,266.85 218.225,269.602 C218.225,269.688 215.043,279.234 214.785,280.094 L214.699,280.352 C214.699,280.61 214.785,280.782 214.871,280.954 C215.043,281.126 215.215,281.298 215.559,281.298 L220.117,281.298 C220.289,281.298 220.719,281.298 221.063,279.922 C221.923,275.966 225.535,262.722 228.717,262.722 C228.889,262.722 229.147,262.808 229.233,262.98 C229.405,263.152 229.491,263.496 229.491,263.926 C229.491,265.388 228.631,268.14 227.599,271.666 C226.309,275.88 225.019,279.922 225.019,279.922 C225.019,280.008 225.019,280.094 225.019,280.266 C225.019,280.868 225.191,281.298 225.879,281.298 L230.609,281.298 C230.953,281.298 231.383,281.212 231.555,280.266 C231.555,280.18 231.641,279.922 231.641,279.664 C233.361,267.624 236.113,264.012 238.177,263.152 L238.263,263.066 C238.349,263.066 238.349,263.066 238.349,263.066 L238.435,263.066 C238.521,263.152 238.607,263.152 238.607,263.152 C238.779,263.238 239.037,263.496 239.037,263.926 C239.037,264.786 238.521,268.226 236.715,272.87 C236.199,274.246 235.941,275.536 235.941,276.74 C235.941,279.406 237.317,281.384 240.241,281.384 C244.111,281.384 245.573,278.288 246.777,275.106 L246.777,274.848 C246.863,274.848 246.863,274.762 246.863,274.762 L245.401,274.074 C245.401,274.074 244.455,276.396 243.853,277.428"/>
<path class="Beam" fill-rule="evenodd" d="M1188.61,114.202 L1452.54,108.802 L1452.54,119.605 L1188.61,125.005 L1188.61,114.202 "/>
<path class="Tuplet" d="M573.642,85.2571 C575.475,84.6721 576.216,84.3601 577.152,83.7361 C578.985,82.5271 580.116,80.3821 580.116,78.1981 C580.116,74.4931 577.152,71.9971 572.784,71.9971 C568.533,71.9971 564.945,74.6491 564.945,77.8471 C564.945,79.4461 565.92,80.5381 567.402,80.5381 C568.689,80.5381 569.625,79.6021 569.625,78.3151 C569.625,77.6521 569.43,77.1841 568.806,76.5601 C568.416,76.2091 568.26,75.9361 568.26,75.6631 C568.26,74.7271 570.21,73.7521 572.043,73.7521 C574.656,73.7521 576.216,75.1951 576.216,77.6131 C576.216,81.0841 573.759,84.3601 571.146,84.3601 C571.029,84.3601 570.678,84.3211 570.249,84.2821 C569.118,84.2041 569.118,84.2041 568.884,84.2041 C568.026,84.2041 567.558,84.5941 567.558,85.2961 C567.558,85.9201 567.987,86.3101 568.689,86.3101 C568.884,86.3101 569.157,86.2711 569.469,86.2321 C570.015,86.1151 570.6,86.0761 570.951,86.0761 C572.784,86.0761 574.032,87.7141 574.032,90.1321 C574.032,94.3441 571.965,98.4001 567.246,98.4001 C565.062,98.4001 563.19,97.3081 563.19,96.0601 C563.19,95.6311 563.346,95.4751 563.97,95.2021 C565.101,94.6951 565.569,93.9931 565.569,92.9401 C565.569,91.5751 564.477,90.5221 563.073,90.5221 C561.396,90.5221 560.304,91.8481 560.304,93.8761 C560.304,97.6591 563.19,100.038 567.87,100.038 C573.759,100.038 578.244,96.0991 578.244,90.8731 C578.244,87.8311 576.372,86.1151 573.642,85.2571"/>
<polyline class="Tuplet" fill="none" stroke="#000000" stroke-width="2.16" stroke-linejoin="miter" stroke-miterlimit="2" points="249.669,102.216 249.669,86.0156 549.512,86.0156"/>
<polyline class="Tuplet" fill="none" stroke="#000000" stroke-width="2.16" stroke-linejoin="miter" stroke-miterlimit="2" points="590.909,86.0156 890.752,86.0156 890.752,102.216"/>
</svg>
