<?xml version="1.0" encoding="UTF-8" standalone="no"?>
<svg width="1800px" height="360px" viewBox="0 0 1800 360"
 xmlns="http://www.w3.org/2000/svg" xmlns:xlink="http://www.w3.org/1999/xlink" version="1.2" baseProfile="tiny">
<title>svg_template</title>
<desc>Generated by MuseScore Studio 4.4.4</desc>
<path class="" fill="#ffffff" fill-rule="evenodd" d="M0,0 L1800,0 L1800,360 L0,360 L0,0 "/>
<polyline class="StaffLines" fill="none" stroke="#000000" stroke-width="2.38" stroke-linejoin="bevel" points="108,103.091 1710,103.091"/>
<polyline class="StaffLines" fill="none" stroke="#000000" stroke-width="2.38" stroke-linejoin="bevel" points="108,124.691 1710,124.691"/>
<polyline class="StaffLines" fill="none" stroke="#000000" stroke-width="2.38" stroke-linejoin="bevel" points="108,146.291 1710,146.291"/>
<polyline class="StaffLines" fill="none" stroke="#000000" stroke-width="2.38" stroke-linejoin="bevel" points="108,167.891 1710,167.891"/>
<polyline class="StaffLines" fill="none" stroke="#000000" stroke-width="2.38" stroke-linejoin="bevel" points="108,189.49 1710,189.49"/>
<polyline class="BarLine" fill="none" stroke="#000000" stroke-width="3.89" stroke-linejoin="bevel" points="1708.06,101.903 1708.06,190.679"/>
<polyline class="Stem" fill="none" stroke="#000000" stroke-width="2.16" stroke-linejoin="bevel" points="260.469,153.635 260.469,86.8905"/>
<polyline class="Stem" fill="none" stroke="#000000" stroke-width="2.16" stroke-linejoin="bevel" points="487.451,149.919 487.451,205.656"/>
<polyline class="Stem" fill="none" stroke="#000000" stroke-width="2.16" stroke-linejoin="bevel" points="656.044,139.119 656.044,200.325"/>
<polyline class="Stem" fill="none" stroke="#000000" stroke-width="2.16" stroke-linejoin="bevel" points="824.637,128.319 824.637,200.291"/>
<polyline class="Stem" fill="none" stroke="#000000" stroke-width="2.16" stroke-linejoin="bevel" points="1538.6,117.519 1538.6,184.091"/>
<polyline class="Stem" fill="none" stroke="#000000" stroke-width="2.16" stroke-linejoin="bevel" points="1426.2,117.519 1426.2,184.091"/>
<polyline class="Stem" fill="none" stroke="#000000" stroke-width="2.16" stroke-linejoin="bevel" points="1313.81,117.519 1313.81,184.091"/>
<polyline class="Stem" fill="none" stroke="#000000" stroke-width="2.16" stroke-linejoin="bevel" points="1145.22,117.519 1145.22,189.404"/>
<path class="Hook" transform="matrix(0.864,0,0,0.864,1144.14,189.49)" d="M0,-0.1 C0,0.6 0.6,1.2 1.3,1.2 C1.8,1.2 2.4,0.8 2.5,0.4 C2.5,0.3 3.4,-3.2 3.5,-3.5 C3.6,-3.9 4.5,-7.7 8.1,-13.6 C12,-20.1 18,-24.8 23,-31.8 C28,-38.8 30.9,-45.4 30.9,-54.2 C30.9,-63.3 28.9,-70.9 23.5,-80.6 C23.2,-81.3 22.6,-81.7 22,-81.7 C21.8,-81.7 21.6,-81.7 21.5,-81.6 C21,-81.4 20.8,-81 20.8,-80.4 C20.8,-80.1 20.9,-79.7 21.1,-79.2 C25.1,-69.9 26.7,-64.6 26.7,-57.4 C26.7,-49.1 23.8,-44.8 22,-41.7 C15.5,-30.6 5,-25.2 0.8,-23.8 C0.1,-23.6 0,-23 0,-22.7 L0,-0.1 "/>
<path class="Note" transform="matrix(0.864,0,0,0.864,1537.52,113.891)" d="M0,4.2 C0,8.5 3.1,13.3 11.2,13.3 C21.6,13.3 32.5,4.8 32.5,-4 C32.5,-9.9 27.5,-13.2 21.3,-13.2 C11.6,-13.2 0,-5 0,4.2"/>
<path class="Note" transform="matrix(0.864,0,0,0.864,823.557,124.691)" d="M0,4.2 C0,8.5 3.1,13.3 11.2,13.3 C21.6,13.3 32.5,4.8 32.5,-4 C32.5,-9.9 27.5,-13.2 21.3,-13.2 C11.6,-13.2 0,-5 0,4.2"/>
<path class="Note" transform="matrix(0.864,0,0,0.864,1144.14,113.891)" d="M0,4.2 C0,8.5 3.1,13.3 11.2,13.3 C21.6,13.3 32.5,4.8 32.5,-4 C32.5,-9.9 27.5,-13.2 21.3,-13.2 C11.6,-13.2 0,-5 0,4.2"/>
<path class="Note" transform="matrix(0.864,0,0,0.864,654.964,135.49)" d="M0,4.2 C0,8.5 3.1,13.3 11.2,13.3 C21.6,13.3 32.5,4.8 32.5,-4 C32.5,-9.9 27.5,-13.2 21.3,-13.2 C11.6,-13.2 0,-5 0,4.2"/>
<path class="Note" transform="matrix(0.864,0,0,0.864,1312.73,113.891)" d="M0,4.2 C0,8.5 3.1,13.3 11.2,13.3 C21.6,13.3 32.5,4.8 32.5,-4 C32.5,-9.9 27.5,-13.2 21.3,-13.2 C11.6,-13.2 0,-5 0,4.2"/>
<path class="Note" transform="matrix(0.864,0,0,0.864,486.371,146.291)" d="M0,4.2 C0,8.5 3.1,13.3 11.2,13.3 C21.6,13.3 32.5,4.8 32.5,-4 C32.5,-9.9 27.5,-13.2 21.3,-13.2 C11.6,-13.2 0,-5 0,4.2"/>
<path class="Note" transform="matrix(0.864,0,0,0.864,1425.12,113.891)" d="M0,4.2 C0,8.5 3.1,13.3 11.2,13.3 C21.6,13.3 32.5,4.8 32.5,-4 C32.5,-9.9 27.5,-13.2 21.3,-13.2 C11.6,-13.2 0,-5 0,4.2"/>
<path class="Note" transform="matrix(0.864,0,0,0.864,233.483,157.091)" d="M0,4.2 C0,8.5 3.1,13.3 11.2,13.3 C21.6,13.3 32.5,4.8 32.5,-4 C32.5,-9.9 27.5,-13.2 21.3,-13.2 C11.6,-13.2 0,-5 0,4.2"/>
<path class="Clef" transform="matrix(0.864,0,0,0.864,124.2,167.891)" d="M12.3,51.3 C12.3,57.9 17.3,66.6 30.8,66.6 C35.5,66.6 39.6,65.4 43.2,63.2 C48.6,59.4 50,52.8 50,46.5 C50,42.6 49.4,38.1 48.4,32.4 C48.1,30.4 47.5,27.4 46.9,23.5 C56.7,20.3 64,10.1 64,-0.2 C64,-15.3 53.3,-25.5 38.7,-25.5 C37.7,-31.5 36.7,-37.4 35.9,-43 C46.4,-54.1 53.7,-66.6 53.7,-82.5 C53.7,-91.6 50.9,-99 49.3,-102.6 C46.9,-107.7 44,-111.2 42.2,-111.2 C41.5,-111.2 38.4,-110 35.1,-106.1 C28.7,-98.5 26.9,-85.7 26.9,-77.3 C26.9,-71.9 27.4,-67 29.1,-55.8 C29,-55.7 23.8,-50.4 21.7,-48.7 C12.6,-40.3 0,-28.1 0,-8.1 C0,10.6 16.3,25.3 34.9,25.3 C37.8,25.3 40.5,25 42.8,24.6 C44.7,34.2 45.9,41.2 45.9,46.5 C45.9,56.9 40.5,62.4 30.4,62.4 C28,62.4 25.9,61.9 25.7,61.9 C25.6,61.8 25.4,61.7 25.4,61.6 C25.4,61.4 25.6,61.3 25.9,61.3 C30.6,60.5 35.3,56.5 35.3,50.1 C35.3,44.7 31.2,39 23.7,39 C16.7,39 12.3,44.7 12.3,51.3 M33.2,-82.2 C34.1,-86.2 38.7,-96.7 43.9,-96.7 C45.4,-96.7 47.8,-91.9 47.8,-84.9 C47.8,-74.5 40.1,-66.7 33.2,-59.9 C32.6,-63.9 32.1,-67.8 32.1,-72 C32.1,-75.7 32.4,-79.1 33.2,-82.2 M42,20.6 C40,21 38.1,21.2 36.2,21.2 C21.9,21.2 9.7,11.2 9.7,-3.9 C9.7,-16.1 18.3,-27 27.1,-34.6 C28.8,-36.1 30.4,-37.5 31.9,-39 C32.8,-33.6 33.5,-28.9 34.2,-24.8 C25.1,-22.1 18.9,-12.5 18.9,-3.1 C18.9,3.9 24.4,13.5 32.4,13.5 C33.2,13.5 34.1,13.1 34.1,12.2 C34.1,11.3 33.1,10.8 31.9,10 C28,7.6 25.8,5 25.8,0.1 C25.8,-6 30.4,-10.9 36.2,-12.3 L42,20.6 M56.2,2.1 C56.2,9.2 53.3,16.5 46.2,19.4 C44.1,7.4 41.4,-8.5 40.7,-12.9 C49.7,-12.9 56.2,-6.8 56.2,2.1"/>
<path class="Beam" fill-rule="evenodd" d="M1312.73,178.691 L1539.68,178.691 L1539.68,189.491 L1312.73,189.491 L1312.73,178.691 "/>
<path class="Beam" fill-rule="evenodd" d="M1312.73,162.491 L1427.28,162.491 L1427.28,173.291 L1312.73,173.291 L1312.73,162.491 "/>
<path class="Beam" fill-rule="evenodd" d="M486.371,200.288 L657.124,194.888 L657.124,205.693 L486.371,211.093 L486.371,200.288 "/>
<path class="NoteDot" transform="matrix(0.864,0,0,0.864,862.423,113.891)" d="M0,0 C0,2.8 2.2,5 5,5 C7.8,5 10,2.8 10,0 C10,-2.8 7.8,-5 5,-5 C2.2,-5 0,-2.8 0,0"/>
</svg>
