<?xml version="1.0" encoding="UTF-8" standalone="no"?>
<svg width="1800px" height="360px" viewBox="0 0 1800 360"
 xmlns="http://www.w3.org/2000/svg" xmlns:xlink="http://www.w3.org/1999/xlink" version="1.2" baseProfile="tiny">
<title>svg_template</title>
<desc>Generated by MuseScore Studio 4.4.4</desc>
<path class="" fill="#ffffff" fill-rule="evenodd" d="M0,0 L1800,0 L1800,360 L0,360 L0,0 "/>
<polyline class="StaffLines" fill="none" stroke="#000000" stroke-width="2.38" stroke-linejoin="bevel" points="108,103.091 1710,103.091"/>
<polyline class="StaffLines" fill="none" stroke="#000000" stroke-width="2.38" stroke-linejoin="bevel" points="108,124.691 1710,124.691"/>
<polyline class="StaffLines" fill="none" stroke="#000000" stroke-width="2.38" stroke-linejoin="bevel" points="108,146.291 1710,146.291"/>
<polyline class="StaffLines" fill="none" stroke="#000000" stroke-width="2.38" stroke-linejoin="bevel" points="108,167.891 1710,167.891"/>
<polyline class="StaffLines" fill="none" stroke="#000000" stroke-width="2.38" stroke-linejoin="bevel" points="108,189.49 1710,189.49"/>
<polyline class="BarLine" fill="none" stroke="#000000" stroke-width="3.89" stroke-linejoin="bevel" points="1708.06,101.903 1708.06,190.679"/>
<polyline class="Stem" fill="none" stroke="#000000" stroke-width="2.16" stroke-linejoin="bevel" points="824.637,128.319 824.637,200.291"/>
<polyline class="Stem" fill="none" stroke="#000000" stroke-width="2.16" stroke-linejoin="bevel" points="260.469,153.635 260.469,86.8905"/>
<polyline class="Stem" fill="none" stroke="#000000" stroke-width="2.16" stroke-linejoin="bevel" points="487.451,149.919 487.451,205.656"/>
<polyline class="Stem" fill="none" stroke="#000000" stroke-width="2.16" stroke-linejoin="bevel" points="656.044,139.119 656.044,200.325"/>
<polyline class="Stem" fill="none" stroke="#000000" stroke-width="2.16" stroke-linejoin="bevel" points="1538.6,117.519 1538.6,184.091"/>
<polyline class="Stem" fill="none" stroke="#000000" stroke-width="2.16" stroke-linejoin="bevel" points="1426.2,117.519 1426.2,184.091"/>
<polyline class="Stem" fill="none" stroke="#000000" stroke-width="2.16" stroke-linejoin="bevel" points="1313.81,117.519 1313.81,184.091"/>
<polyline class="Stem" fill="none" stroke="#000000" stroke-width="2.16" stroke-linejoin="bevel" points="1145.22,117.519 1145.22,189.404"/>
<path class="Hook" transform="matrix(0.864,0,0,0.864,1144.14,189.49)" d="M0,-0.1 C0,0.6 0.6,1.2 1.3,1.2 C1.8,1.2 2.4,0.8 2.5,0.4 C2.5,0.3 3.4,-3.2 3.5,-3.5 C3.6,-3.9 4.5,-7.7 8.1,-13.6 C12,-20.1 18,-24.8 23,-31.8 C28,-38.8 30.9,-45.4 30.9,-54.2 C30.9,-63.3 28.9,-70.9 23.5,-80.6 C23.2,-81.3 22.6,-81.7 22,-81.7 C21.8,-81.7 21.6,-81.7 21.5,-81.6 C21,-81.4 20.8,-81 20.8,-80.4 C20.8,-80.1 20.9,-79.7 21.1,-79.2 C25.1,-69.9 26.7,-64.6 26.7,-57.4 C26.7,-49.1 23.8,-44.8 22,-41.7 C15.5,-30.6 5,-25.2 0.8,-23.8 C0.1,-23.6 0,-23 0,-22.7 L0,-0.1 "/>
<path class="Note" transform="matrix(0.864,0,0,0.864,1537.52,113.891)" d="M0,4.2 C0,8.5 3.1,13.3 11.2,13.3 C21.6,13.3 32.5,4.8 32.5,-4 C32.5,-9.9 27.5,-13.2 21.3,-13.2 C11.6,-13.2 0,-5 0,4.2"/>
<path class="Note" transform="matrix(0.864,0,0,0.864,823.557,124.691)" d="M0,4.2 C0,8.5 3.1,13.3 11.2,13.3 C21.6,13.3 32.5,4.8 32.5,-4 C32.5,-9.9 27.5,-13.2 21.3,-13.2 C11.6,-13.2 0,-5 0,4.2"/>
<path class="Note" transform="matrix(0.864,0,0,0.864,1144.14,113.891)" d="M0,4.2 C0,8.5 3.1,13.3 11.2,13.3 C21.6,13.3 32.5,4.8 32.5,-4 C32.5,-9.9 27.5,-13.2 21.3,-13.2 C11.6,-13.2 0,-5 0,4.2"/>
<path class="Note" transform="matrix(0.864,0,0,0.864,654.964,135.49)" d="M0,4.2 C0,8.5 3.1,13.3 11.2,13.3 C21.6,13.3 32.5,4.8 32.5,-4 C32.5,-9.9 27.5,-13.2 21.3,-13.2 C11.6,-13.2 0,-5 0,4.2"/>
<path class="Note" transform="matrix(0.864,0,0,0.864,1312.73,113.891)" d="M0,4.2 C0,8.5 3.1,13.3 11.2,13.3 C21.6,13.3 32.5,4.8 32.5,-4 C32.5,-9.9 27.5,-13.2 21.3,-13.2 C11.6,-13.2 0,-5 0,4.2"/>
<path class="Note" transform="matrix(0.864,0,0,0.864,486.371,146.291)" d="M0,4.2 C0,8.5 3.1,13.3 11.2,13.3 C21.6,13.3 32.5,4.8 32.5,-4 C32.5,-9.9 27.5,-13.2 21.3,-13.2 C11.6,-13.2 0,-5 0,4.2"/>
<path class="Note" transform="matrix(0.864,0,0,0.864,1425.12,113.891)" d="M0,4.2 C0,8.5 3.1,13.3 11.2,13.3 C21.6,13.3 32.5,4.8 32.5,-4 C32.5,-9.9 27.5,-13.2 21.3,-13.2 C11.6,-13.2 0,-5 0,4.2"/>
<path class="Note" transform="matrix(0.864,0,0,0.864,233.483,157.091)" d="M0,4.2 C0,8.5 3.1,13.3 11.2,13.3 C21.6,13.3 32.5,4.8 32.5,-4 C32.5,-9.9 27.5,-13.2 21.3,-13.2 C11.6,-13.2 0,-5 0,4.2"/>
<path class="Clef" transform="matrix(0.864,0,0,0.864,124.2,167.891)" d="M12.3,51.3 C12.3,57.9 17.3,66.6 30.8,66.6 C35.5,66.6 39.6,65.4 43.2,63.2 C48.6,59.4 50,52.8 50,46.5 C50,42.6 49.4,38.1 48.4,32.4 C48.1,30.4 47.5,27.4 46.9,23.5 C56.7,20.3 64,10.1 64,-0.2 C64,-15.3 53.3,-25.5 38.7,-25.5 C37.7,-31.5 36.7,-37.4 35.9,-43 C46.4,-54.1 53.7,-66.6 53.7,-82.5 C53.7,-91.6 50.9,-99 49.3,-102.6 C46.9,-107.7 44,-111.2 42.2,-111.2 C41.5,-111.2 38.4,-110 35.1,-106.1 C28.7,-98.5 26.9,-85.7 26.9,-77.3 C26.9,-71.9 27.4,-67 29.1,-55.8 C29,-55.7 23.8,-50.4 21.7,-48.7 C12.6,-40.3 0,-28.1 0,-8.1 C0,10.6 16.3,25.3 34.9,25.3 C37.8,25.3 40.5,25 42.8,24.6 C44.7,34.2 45.9,41.2 45.9,46.5 C45.9,56.9 40.5,62.4 30.4,62.4 C28,62.4 25.9,61.9 25.7,61.9 C25.6,61.8 25.4,61.7 25.4,61.6 C25.4,61.4 25.6,61.3 25.9,61.3 C30.6,60.5 35.3,56.5 35.3,50.1 C35.3,44.7 31.2,39 23.7,39 C16.7,39 12.3,44.7 12.3,51.3 M33.2,-82.2 C34.1,-86.2 38.7,-96.7 43.9,-96.7 C45.4,-96.7 47.8,-91.9 47.8,-84.9 C47.8,-74.5 40.1,-66.7 33.2,-59.9 C32.6,-63.9 32.1,-67.8 32.1,-72 C32.1,-75.7 32.4,-79.1 33.2,-82.2 M42,20.6 C40,21 38.1,21.2 36.2,21.2 C21.9,21.2 9.7,11.2 9.7,-3.9 C9.7,-16.1 18.3,-27 27.1,-34.6 C28.8,-36.1 30.4,-37.5 31.9,-39 C32.8,-33.6 33.5,-28.9 34.2,-24.8 C25.1,-22.1 18.9,-12.5 18.9,-3.1 C18.9,3.9 24.4,13.5 32.4,13.5 C33.2,13.5 34.1,13.1 34.1,12.2 C34.1,11.3 33.1,10.8 31.9,10 C28,7.6 25.8,5 25.8,0.1 C25.8,-6 30.4,-10.9 36.2,-12.3 L42,20.6 M56.2,2.1 C56.2,9.2 53.3,16.5 46.2,19.4 C44.1,7.4 41.4,-8.5 40.7,-12.9 C49.7,-12.9 56.2,-6.8 56.2,2.1"/>
<path class="Dynamic" d="M222.672,243.183 C220.35,243.183 218.2,245.333 218.2,247.655 C218.2,252.127 221.21,254.621 225.166,254.621 C227.918,254.621 229.896,253.761 232.046,251.611 C235.83,247.827 239.958,235.013 242.022,227.703 C242.796,224.951 243.57,222.285 244.172,220.307 L244.172,220.135 L250.364,220.135 C250.88,220.135 251.224,219.791 251.224,219.275 L251.224,217.383 C251.224,216.867 250.88,216.523 250.364,216.523 L245.29,216.523 L245.29,216.265 C247.698,207.493 248.386,205.945 249.676,204.913 C250.364,204.397 250.966,204.225 251.396,204.225 C251.568,204.225 251.74,204.311 251.826,204.311 C252.342,204.397 252.772,204.913 252.772,205.429 C252.772,205.859 252.6,206.289 252.256,206.461 C251.396,207.149 250.966,208.267 250.966,209.471 C250.966,209.901 251.052,210.245 251.138,210.675 C251.396,211.449 252.084,212.223 252.944,212.567 C253.288,212.739 253.89,212.911 254.492,212.911 C256.298,212.911 258.104,211.535 258.534,209.815 C258.706,209.385 258.706,208.869 258.706,208.353 C258.706,204.053 254.836,201.817 250.966,201.817 C242.968,201.817 239.442,209.987 237.292,216.351 L237.292,216.523 L230.756,216.523 C230.24,216.523 229.896,216.867 229.896,217.383 L229.896,219.275 C229.896,219.791 230.24,220.135 230.756,220.135 L236.088,220.135 L236.088,220.479 C235.228,223.919 234.54,226.843 233.938,229.681 C233.25,232.863 232.476,236.131 231.444,240.087 L231.186,241.119 C229.38,248.171 228.864,250.665 226.8,252.041 C226.37,252.299 225.854,252.471 225.338,252.471 C224.908,252.471 224.478,252.299 224.134,252.041 C223.79,251.783 223.704,251.525 223.704,251.095 C223.79,250.751 223.962,250.407 224.392,250.235 C226.026,249.547 226.542,247.999 226.542,246.623 C226.542,245.419 225.768,243.183 222.672,243.183"/>
<path class="Dynamic" d="M492.442,263.595 C490.12,263.595 487.97,265.745 487.97,268.067 C487.97,272.539 490.98,275.033 494.936,275.033 C497.688,275.033 499.666,274.173 501.816,272.023 C505.6,268.239 509.728,255.425 511.792,248.115 C512.566,245.363 513.34,242.697 513.942,240.719 L513.942,240.547 L520.134,240.547 C520.65,240.547 520.994,240.203 520.994,239.687 L520.994,237.795 C520.994,237.279 520.65,236.935 520.134,236.935 L515.06,236.935 L515.06,236.677 C517.468,227.905 518.156,226.357 519.446,225.325 C520.134,224.809 520.736,224.637 521.166,224.637 C521.338,224.637 521.51,224.723 521.596,224.723 C522.112,224.809 522.542,225.325 522.542,225.841 C522.542,226.271 522.37,226.701 522.026,226.873 C521.166,227.561 520.736,228.679 520.736,229.883 C520.736,230.313 520.822,230.657 520.908,231.087 C521.166,231.861 521.854,232.635 522.714,232.979 C523.058,233.151 523.66,233.323 524.262,233.323 C526.068,233.323 527.874,231.947 528.304,230.227 C528.476,229.797 528.476,229.281 528.476,228.765 C528.476,224.465 524.606,222.229 520.736,222.229 C512.738,222.229 509.212,230.399 507.062,236.763 L507.062,236.935 L500.526,236.935 C500.01,236.935 499.666,237.279 499.666,237.795 L499.666,239.687 C499.666,240.203 500.01,240.547 500.526,240.547 L505.858,240.547 L505.858,240.891 C504.998,244.331 504.31,247.255 503.708,250.093 C503.02,253.275 502.246,256.543 501.214,260.499 L500.956,261.531 C499.15,268.583 498.634,271.077 496.57,272.453 C496.14,272.711 495.624,272.883 495.108,272.883 C494.678,272.883 494.248,272.711 493.904,272.453 C493.56,272.195 493.474,271.937 493.474,271.507 C493.56,271.163 493.732,270.819 494.162,270.647 C495.796,269.959 496.312,268.411 496.312,267.035 C496.312,265.831 495.538,263.595 492.442,263.595 M496.742,254.651 C496.312,255.425 495.882,255.597 495.452,255.597 C495.28,255.597 495.194,255.597 495.022,255.511 C494.592,255.339 494.42,254.995 494.42,254.565 C494.42,253.877 495.538,249.835 495.882,249.061 C496.398,247.513 497,243.987 497,241.665 C497,241.235 497,240.805 496.914,240.461 C496.484,238.139 495.452,237.021 493.646,237.021 C491.41,237.021 489.002,238.655 487.884,240.117 L487.712,240.461 L487.54,240.031 C487.54,240.031 486.164,237.021 483.842,237.021 C481.434,237.021 479.628,237.967 478.166,239.945 L477.908,240.289 L477.822,239.859 C477.822,239.859 476.704,237.365 474.554,236.935 C474.124,236.849 473.694,236.849 473.35,236.849 C469.824,236.849 467.932,240.461 466.986,243.385 L468.276,244.073 C468.276,244.073 469.738,239.429 471.63,239.429 C471.802,239.429 471.888,239.429 472.06,239.515 C472.576,239.687 472.748,240.117 472.748,240.805 C472.748,242.009 472.06,244.073 471.114,246.825 C471.114,246.911 467.932,256.457 467.674,257.317 L467.588,257.575 C467.588,257.833 467.674,258.005 467.76,258.177 C467.932,258.349 468.104,258.521 468.448,258.521 L473.006,258.521 C473.178,258.521 473.608,258.521 473.952,257.145 C474.812,253.189 478.424,239.945 481.606,239.945 C481.778,239.945 482.036,240.031 482.122,240.203 C482.294,240.375 482.38,240.719 482.38,241.149 C482.38,242.611 481.52,245.363 480.488,248.889 C479.198,253.103 477.908,257.145 477.908,257.145 C477.908,257.231 477.908,257.317 477.908,257.489 C477.908,258.091 478.08,258.521 478.768,258.521 L483.498,258.521 C483.842,258.521 484.272,258.435 484.444,257.489 C484.444,257.403 484.53,257.145 484.53,256.887 C486.25,244.847 489.002,241.235 491.066,240.375 L491.152,240.289 C491.238,240.289 491.238,240.289 491.238,240.289 L491.324,240.289 C491.41,240.375 491.496,240.375 491.496,240.375 C491.668,240.461 491.926,240.719 491.926,241.149 C491.926,242.009 491.41,245.449 489.604,250.093 C489.088,251.469 488.83,252.759 488.83,253.963 C488.83,256.629 490.206,258.607 493.13,258.607 C497,258.607 498.462,255.511 499.666,252.329 L499.666,252.071 C499.752,252.071 499.752,251.985 499.752,251.985 L498.29,251.297 C498.29,251.297 497.344,253.619 496.742,254.651"/>
<path class="Dynamic" d="M663.164,254.176 L663.164,252.456 L656.714,252.456 L661.702,238.61 L661.96,239.212 C661.96,239.212 662.82,241.104 665.744,241.878 C666.26,242.05 666.862,242.05 667.378,242.05 C674.688,242.05 679.332,231.988 679.332,225.452 C679.332,221.926 677.268,217.712 673.312,217.712 C670.646,217.712 667.98,219.948 666.518,221.41 L666.26,221.668 L666.088,221.324 C666.088,221.324 664.282,218.056 661.272,217.626 C661.186,217.626 661.1,217.626 661.014,217.626 L660.584,217.54 C655.682,217.54 653.446,222.7 652.07,226.656 L653.618,227.43 C653.962,226.312 654.822,223.56 655.854,222.184 C656.37,221.41 657.402,220.722 658.176,220.55 C658.262,220.55 658.434,220.55 658.52,220.55 C658.778,220.55 659.036,220.55 659.208,220.722 C659.552,220.98 659.638,221.41 659.638,222.012 C659.638,224.076 658.09,227.86 657.66,228.72 L649.146,252.456 L643.9,252.456 L643.9,254.176 L663.164,254.176 M665.572,239.126 C665.4,239.126 665.056,239.126 664.884,239.04 C663.594,238.524 663.25,236.976 663.25,235.342 C663.25,232.676 664.196,229.58 664.282,229.408 C664.884,226.742 668.152,220.722 671.506,220.722 C671.678,220.722 671.936,220.722 672.108,220.808 C673.14,221.066 673.312,222.7 673.312,223.56 C673.312,227.688 670.302,237.148 666.518,238.954 C666.26,239.126 665.83,239.126 665.572,239.126"/>
<path class="Beam" fill-rule="evenodd" d="M1312.73,178.691 L1539.68,178.691 L1539.68,189.491 L1312.73,189.491 L1312.73,178.691 "/>
<path class="Beam" fill-rule="evenodd" d="M1312.73,162.491 L1427.28,162.491 L1427.28,173.291 L1312.73,173.291 L1312.73,162.491 "/>
<path class="Beam" fill-rule="evenodd" d="M486.371,200.288 L657.124,194.888 L657.124,205.693 L486.371,211.093 L486.371,200.288 "/>
<path class="NoteDot" transform="matrix(0.864,0,0,0.864,862.423,113.891)" d="M0,0 C0,2.8 2.2,5 5,5 C7.8,5 10,2.8 10,0 C10,-2.8 7.8,-5 5,-5 C2.2,-5 0,-2.8 0,0"/>
</svg>
