<?xml version="1.0" encoding="UTF-8" standalone="no"?>
<svg width="1800px" height="900px" viewBox="0 0 1800 900"
 xmlns="http://www.w3.org/2000/svg" xmlns:xlink="http://www.w3.org/1999/xlink" version="1.2" baseProfile="tiny">
<title>svg_template</title>
<desc>Generated by MuseScore Studio 4.4.4</desc>
<path class="" fill="#ffffff" fill-rule="evenodd" d="M0,0 L1800,0 L1800,900 L0,900 L0,0 "/>
<polyline class="StaffLines" fill="none" stroke="#000000" stroke-width="2.77" stroke-linejoin="bevel" points="126,282.605 1710,282.605"/>
<polyline class="StaffLines" fill="none" stroke="#000000" stroke-width="2.77" stroke-linejoin="bevel" points="126,307.805 1710,307.805"/>
<polyline class="StaffLines" fill="none" stroke="#000000" stroke-width="2.77" stroke-linejoin="bevel" points="126,333.005 1710,333.005"/>
<polyline class="StaffLines" fill="none" stroke="#000000" stroke-width="2.77" stroke-linejoin="bevel" points="126,358.205 1710,358.205"/>
<polyline class="StaffLines" fill="none" stroke="#000000" stroke-width="2.77" stroke-linejoin="bevel" points="126,383.405 1710,383.405"/>
<polyline class="StaffLines" fill="none" stroke="#000000" stroke-width="2.77" stroke-linejoin="bevel" points="126,547.205 1710,547.205"/>
<polyline class="StaffLines" fill="none" stroke="#000000" stroke-width="2.77" stroke-linejoin="bevel" points="126,572.405 1710,572.405"/>
<polyline class="StaffLines" fill="none" stroke="#000000" stroke-width="2.77" stroke-linejoin="bevel" points="126,597.605 1710,597.605"/>
<polyline class="StaffLines" fill="none" stroke="#000000" stroke-width="2.77" stroke-linejoin="bevel" points="126,622.805 1710,622.805"/>
<polyline class="StaffLines" fill="none" stroke="#000000" stroke-width="2.77" stroke-linejoin="bevel" points="126,648.005 1710,648.005"/>
<polyline class="BarLine" fill="none" stroke="#000000" stroke-width="4.54" stroke-linejoin="bevel" points="1004.53,281.219 1004.53,547.205"/>
<polyline class="BarLine" fill="none" stroke="#000000" stroke-width="4.54" stroke-linejoin="bevel" points="128.268,281.219 128.268,547.205"/>
<polyline class="BarLine" fill="none" stroke="#000000" stroke-width="4.54" stroke-linejoin="bevel" points="1707.73,281.219 1707.73,547.205"/>
<polyline class="BarLine" fill="none" stroke="#000000" stroke-width="4.54" stroke-linejoin="bevel" points="1707.73,545.819 1707.73,649.391"/>
<polyline class="BarLine" fill="none" stroke="#000000" stroke-width="4.54" stroke-linejoin="bevel" points="128.268,545.819 128.268,649.391"/>
<polyline class="BarLine" fill="none" stroke="#000000" stroke-width="4.54" stroke-linejoin="bevel" points="1004.53,545.819 1004.53,649.391"/>
<polyline class="LedgerLine" fill="none" stroke="#000000" stroke-width="4.03" stroke-linejoin="bevel" points="1530.36,257.405 1579.73,257.405"/>
<polyline class="LedgerLine" fill="none" stroke="#000000" stroke-width="4.03" stroke-linejoin="bevel" points="1530.36,232.205 1579.73,232.205"/>
<polyline class="LedgerLine" fill="none" stroke="#000000" stroke-width="4.03" stroke-linejoin="bevel" points="1530.36,207.005 1579.73,207.005"/>
<polyline class="LedgerLine" fill="none" stroke="#000000" stroke-width="4.03" stroke-linejoin="bevel" points="1530.36,181.805 1579.73,181.805"/>
<polyline class="LedgerLine" fill="none" stroke="#000000" stroke-width="4.03" stroke-linejoin="bevel" points="1530.36,156.605 1579.73,156.605"/>
<polyline class="LedgerLine" fill="none" stroke="#000000" stroke-width="4.03" stroke-linejoin="bevel" points="1363.57,257.405 1412.94,257.405"/>
<polyline class="LedgerLine" fill="none" stroke="#000000" stroke-width="4.03" stroke-linejoin="bevel" points="1363.57,232.205 1412.94,232.205"/>
<polyline class="LedgerLine" fill="none" stroke="#000000" stroke-width="4.03" stroke-linejoin="bevel" points="1363.57,207.005 1412.94,207.005"/>
<polyline class="LedgerLine" fill="none" stroke="#000000" stroke-width="4.03" stroke-linejoin="bevel" points="1363.57,181.805 1412.94,181.805"/>
<polyline class="LedgerLine" fill="none" stroke="#000000" stroke-width="4.03" stroke-linejoin="bevel" points="1363.57,156.605 1412.94,156.605"/>
<polyline class="LedgerLine" fill="none" stroke="#000000" stroke-width="4.03" stroke-linejoin="bevel" points="1196.77,257.405 1246.15,257.405"/>
<polyline class="LedgerLine" fill="none" stroke="#000000" stroke-width="4.03" stroke-linejoin="bevel" points="1196.77,232.205 1246.15,232.205"/>
<polyline class="LedgerLine" fill="none" stroke="#000000" stroke-width="4.03" stroke-linejoin="bevel" points="326.781,673.205 376.157,673.205"/>
<polyline class="LedgerLine" fill="none" stroke="#000000" stroke-width="4.03" stroke-linejoin="bevel" points="326.781,698.405 376.157,698.405"/>
<polyline class="LedgerLine" fill="none" stroke="#000000" stroke-width="4.03" stroke-linejoin="bevel" points="493.572,673.205 542.949,673.205"/>
<polyline class="LedgerLine" fill="none" stroke="#000000" stroke-width="4.03" stroke-linejoin="bevel" points="493.572,698.405 542.949,698.405"/>
<polyline class="LedgerLine" fill="none" stroke="#000000" stroke-width="4.03" stroke-linejoin="bevel" points="827.155,522.005 876.531,522.005"/>
<polyline class="Stem" fill="none" stroke="#000000" stroke-width="2.52" stroke-linejoin="bevel" points="1039.56,324.639 1039.56,402.305"/>
<polyline class="Stem" fill="none" stroke="#000000" stroke-width="2.52" stroke-linejoin="bevel" points="1206.35,236.439 1206.35,333.005"/>
<polyline class="Stem" fill="none" stroke="#000000" stroke-width="2.52" stroke-linejoin="bevel" points="1373.14,148.239 1373.14,333.005"/>
<polyline class="Stem" fill="none" stroke="#000000" stroke-width="2.52" stroke-linejoin="bevel" points="1539.93,148.239 1539.93,333.005"/>
<polyline class="Stem" fill="none" stroke="#000000" stroke-width="2.52" stroke-linejoin="bevel" points="836.731,526.239 836.731,610.205"/>
<polyline class="Stem" fill="none" stroke="#000000" stroke-width="2.52" stroke-linejoin="bevel" points="700.164,606.173 700.164,528.305"/>
<polyline class="Stem" fill="none" stroke="#000000" stroke-width="2.52" stroke-linejoin="bevel" points="533.373,694.373 533.373,597.605"/>
<polyline class="Stem" fill="none" stroke="#000000" stroke-width="2.52" stroke-linejoin="bevel" points="366.581,694.373 366.581,597.605"/>
<path class="Note" transform="matrix(1.008,0,0,1.008,1038.3,320.405)" d="M0,4.2 C0,8.5 3.1,13.3 11.2,13.3 C21.6,13.3 32.5,4.8 32.5,-4 C32.5,-9.9 27.5,-13.2 21.3,-13.2 C11.6,-13.2 0,-5 0,4.2"/>
<path class="Note" transform="matrix(1.008,0,0,1.008,1205.09,232.205)" d="M0,4.2 C0,8.5 3.1,13.3 11.2,13.3 C21.6,13.3 32.5,4.8 32.5,-4 C32.5,-9.9 27.5,-13.2 21.3,-13.2 C11.6,-13.2 0,-5 0,4.2"/>
<path class="Note" transform="matrix(1.008,0,0,1.008,1371.88,144.005)" d="M0,4.2 C0,8.5 3.1,13.3 11.2,13.3 C21.6,13.3 32.5,4.8 32.5,-4 C32.5,-9.9 27.5,-13.2 21.3,-13.2 C11.6,-13.2 0,-5 0,4.2"/>
<path class="Note" transform="matrix(1.008,0,0,1.008,1538.67,144.005)" d="M0,4.2 C0,8.5 3.1,13.3 11.2,13.3 C21.6,13.3 32.5,4.8 32.5,-4 C32.5,-9.9 27.5,-13.2 21.3,-13.2 C11.6,-13.2 0,-5 0,4.2"/>
<path class="Note" transform="matrix(1.008,0,0,1.008,835.471,522.005)" d="M0,4.2 C0,8.5 3.1,13.3 11.2,13.3 C21.6,13.3 32.5,4.8 32.5,-4 C32.5,-9.9 27.5,-13.2 21.3,-13.2 C11.6,-13.2 0,-5 0,4.2"/>
<path class="Note" transform="matrix(1.008,0,0,1.008,668.68,610.205)" d="M0,4.2 C0,8.5 3.1,13.3 11.2,13.3 C21.6,13.3 32.5,4.8 32.5,-4 C32.5,-9.9 27.5,-13.2 21.3,-13.2 C11.6,-13.2 0,-5 0,4.2"/>
<path class="Note" transform="matrix(1.008,0,0,1.008,501.888,698.405)" d="M0,4.2 C0,8.5 3.1,13.3 11.2,13.3 C21.6,13.3 32.5,4.8 32.5,-4 C32.5,-9.9 27.5,-13.2 21.3,-13.2 C11.6,-13.2 0,-5 0,4.2"/>
<path class="Note" transform="matrix(1.008,0,0,1.008,335.097,698.405)" d="M0,4.2 C0,8.5 3.1,13.3 11.2,13.3 C21.6,13.3 32.5,4.8 32.5,-4 C32.5,-9.9 27.5,-13.2 21.3,-13.2 C11.6,-13.2 0,-5 0,4.2"/>
<path class="Clef" transform="matrix(1.008,0,0,1.008,149.436,358.205)" d="M12.3,51.3 C12.3,57.9 17.3,66.6 30.8,66.6 C35.5,66.6 39.6,65.4 43.2,63.2 C48.6,59.4 50,52.8 50,46.5 C50,42.6 49.4,38.1 48.4,32.4 C48.1,30.4 47.5,27.4 46.9,23.5 C56.7,20.3 64,10.1 64,-0.2 C64,-15.3 53.3,-25.5 38.7,-25.5 C37.7,-31.5 36.7,-37.4 35.9,-43 C46.4,-54.1 53.7,-66.6 53.7,-82.5 C53.7,-91.6 50.9,-99 49.3,-102.6 C46.9,-107.7 44,-111.2 42.2,-111.2 C41.5,-111.2 38.4,-110 35.1,-106.1 C28.7,-98.5 26.9,-85.7 26.9,-77.3 C26.9,-71.9 27.4,-67 29.1,-55.8 C29,-55.7 23.8,-50.4 21.7,-48.7 C12.6,-40.3 0,-28.1 0,-8.1 C0,10.6 16.3,25.3 34.9,25.3 C37.8,25.3 40.5,25 42.8,24.6 C44.7,34.2 45.9,41.2 45.9,46.5 C45.9,56.9 40.5,62.4 30.4,62.4 C28,62.4 25.9,61.9 25.7,61.9 C25.6,61.8 25.4,61.7 25.4,61.6 C25.4,61.4 25.6,61.3 25.9,61.3 C30.6,60.5 35.3,56.5 35.3,50.1 C35.3,44.7 31.2,39 23.7,39 C16.7,39 12.3,44.7 12.3,51.3 M33.2,-82.2 C34.1,-86.2 38.7,-96.7 43.9,-96.7 C45.4,-96.7 47.8,-91.9 47.8,-84.9 C47.8,-74.5 40.1,-66.7 33.2,-59.9 C32.6,-63.9 32.1,-67.8 32.1,-72 C32.1,-75.7 32.4,-79.1 33.2,-82.2 M42,20.6 C40,21 38.1,21.2 36.2,21.2 C21.9,21.2 9.7,11.2 9.7,-3.9 C9.7,-16.1 18.3,-27 27.1,-34.6 C28.8,-36.1 30.4,-37.5 31.9,-39 C32.8,-33.6 33.5,-28.9 34.2,-24.8 C25.1,-22.1 18.9,-12.5 18.9,-3.1 C18.9,3.9 24.4,13.5 32.4,13.5 C33.2,13.5 34.1,13.1 34.1,12.2 C34.1,11.3 33.1,10.8 31.9,10 C28,7.6 25.8,5 25.8,0.1 C25.8,-6 30.4,-10.9 36.2,-12.3 L42,20.6 M56.2,2.1 C56.2,9.2 53.3,16.5 46.2,19.4 C44.1,7.4 41.4,-8.5 40.7,-12.9 C49.7,-12.9 56.2,-6.8 56.2,2.1"/>
<path class="Clef" transform="matrix(1.008,0,0,1.008,149.436,572.405)" d="M25.4,-25.1 C17.8,-25.1 11.7,-20.7 11.6,-20.7 C5.7,-16.4 1.9,-9.8 1.9,-2.5 C1.9,4.8 6.1,10.2 13.5,10.2 C19.9,10.2 24.9,5.9 24.9,-0.7 C24.9,-6.4 19.9,-11.1 14.3,-11.1 C13.1,-11.1 12,-10.9 11.1,-10.6 C10.1,-10.2 8.4,-9.2 7.6,-8.5 C8.3,-12.9 11.3,-17.3 15.2,-19.4 C17.7,-20.8 20.9,-21.4 24.4,-21.4 C34.6,-21.4 39.6,-13.2 39.6,3.6 C39.6,16.6 31.3,35.3 21.5,44.1 C11.1,53.6 1.3,58.1 1.2,58.1 C1.2,58.1 0,58.8 0,60 C0,60.2 0.1,60.3 0.1,60.5 C0.4,61.5 1.3,61.7 2,61.7 L2.3,61.6 C2.5,61.6 13.9,56.9 23,49.8 C37,39.7 52.8,21.9 52.8,3.5 C52.8,-13.9 43.4,-25.1 25.4,-25.1 M56.8,-12.4 C56.8,-9.6 59,-7.4 61.6,-7.4 C64.2,-7.4 66.4,-9.6 66.4,-12.4 C66.4,-15.2 64.2,-17.5 61.6,-17.5 C59,-17.5 56.8,-15.2 56.8,-12.4 M56.8,12.3 C56.8,15.1 59,17.4 61.6,17.4 C64.2,17.4 66.4,15.1 66.4,12.3 C66.4,9.5 64.2,7.2 61.6,7.2 C59,7.2 56.8,9.5 56.8,12.3"/>
<path class="TimeSig" transform="matrix(1.008,0,0,1.008,240.156,307.805)" d="M20.8,12.7 L20.8,20.1 L12.5,20.1 C11.8,20.1 11.1,20.7 11.1,21.5 L11.1,23.4 C11.1,24.2 11.8,24.8 12.5,24.8 L42.8,24.8 C43.6,24.8 44.2,24.2 44.2,23.4 L44.2,21.5 C44.2,20.7 43.6,20.1 42.8,20.1 L33.9,20.1 L33.9,12.7 L42.8,12.7 C43.6,12.7 44.2,12 44.2,11.2 L44.2,9.3 C44.2,8.6 43.6,7.9 42.8,7.9 L33.9,7.9 L33.9,-8 C33.9,-8.6 33.6,-9.1 33.1,-9.3 L31.9,-9.9 C31.7,-10 31.4,-10.1 31.2,-10.1 C30.9,-10 30.5,-9.9 30.3,-9.7 L21.2,-1.4 C20.9,-1.1 20.8,-0.7 20.8,-0.3 L20.8,7.9 L9.3,7.9 C9.3,7.9 20.4,-4.1 32.2,-19.9 C32.6,-20.4 32.7,-20.9 32.7,-21.3 C32.7,-21.8 32.5,-22.2 32.4,-22.3 L30.2,-24.5 C30,-24.7 29.6,-24.9 29.2,-24.9 C28.6,-24.9 15.1,-24.9 14.4,-24.9 C13.6,-24.9 13.1,-24.3 13,-23.7 C13,-23.7 12.5,-16.3 9.9,-8.2 C7.3,-0.1 4.3,4.9 1.7,8.6 C1.7,8.6 1.4,9.1 1.4,9.7 C1.4,9.9 1.4,10.1 1.5,10.3 C1.9,11 2.5,12.1 2.5,12.1 C2.5,12.1 2.7,12.7 3.6,12.7 L20.8,12.7 "/>
<path class="TimeSig" transform="matrix(1.008,0,0,1.008,240.156,358.205)" d="M20.8,12.7 L20.8,20.1 L12.5,20.1 C11.8,20.1 11.1,20.7 11.1,21.5 L11.1,23.4 C11.1,24.2 11.8,24.8 12.5,24.8 L42.8,24.8 C43.6,24.8 44.2,24.2 44.2,23.4 L44.2,21.5 C44.2,20.7 43.6,20.1 42.8,20.1 L33.9,20.1 L33.9,12.7 L42.8,12.7 C43.6,12.7 44.2,12 44.2,11.2 L44.2,9.3 C44.2,8.6 43.6,7.9 42.8,7.9 L33.9,7.9 L33.9,-8 C33.9,-8.6 33.6,-9.1 33.1,-9.3 L31.9,-9.9 C31.7,-10 31.4,-10.1 31.2,-10.1 C30.9,-10 30.5,-9.9 30.3,-9.7 L21.2,-1.4 C20.9,-1.1 20.8,-0.7 20.8,-0.3 L20.8,7.9 L9.3,7.9 C9.3,7.9 20.4,-4.1 32.2,-19.9 C32.6,-20.4 32.7,-20.9 32.7,-21.3 C32.7,-21.8 32.5,-22.2 32.4,-22.3 L30.2,-24.5 C30,-24.7 29.6,-24.9 29.2,-24.9 C28.6,-24.9 15.1,-24.9 14.4,-24.9 C13.6,-24.9 13.1,-24.3 13,-23.7 C13,-23.7 12.5,-16.3 9.9,-8.2 C7.3,-0.1 4.3,4.9 1.7,8.6 C1.7,8.6 1.4,9.1 1.4,9.7 C1.4,9.9 1.4,10.1 1.5,10.3 C1.9,11 2.5,12.1 2.5,12.1 C2.5,12.1 2.7,12.7 3.6,12.7 L20.8,12.7 "/>
<path class="TimeSig" transform="matrix(1.008,0,0,1.008,240.156,572.405)" d="M20.8,12.7 L20.8,20.1 L12.5,20.1 C11.8,20.1 11.1,20.7 11.1,21.5 L11.1,23.4 C11.1,24.2 11.8,24.8 12.5,24.8 L42.8,24.8 C43.6,24.8 44.2,24.2 44.2,23.4 L44.2,21.5 C44.2,20.7 43.6,20.1 42.8,20.1 L33.9,20.1 L33.9,12.7 L42.8,12.7 C43.6,12.7 44.2,12 44.2,11.2 L44.2,9.3 C44.2,8.6 43.6,7.9 42.8,7.9 L33.9,7.9 L33.9,-8 C33.9,-8.6 33.6,-9.1 33.1,-9.3 L31.9,-9.9 C31.7,-10 31.4,-10.1 31.2,-10.1 C30.9,-10 30.5,-9.9 30.3,-9.7 L21.2,-1.4 C20.9,-1.1 20.8,-0.7 20.8,-0.3 L20.8,7.9 L9.3,7.9 C9.3,7.9 20.4,-4.1 32.2,-19.9 C32.6,-20.4 32.7,-20.9 32.7,-21.3 C32.7,-21.8 32.5,-22.2 32.4,-22.3 L30.2,-24.5 C30,-24.7 29.6,-24.9 29.2,-24.9 C28.6,-24.9 15.1,-24.9 14.4,-24.9 C13.6,-24.9 13.1,-24.3 13,-23.7 C13,-23.7 12.5,-16.3 9.9,-8.2 C7.3,-0.1 4.3,4.9 1.7,8.6 C1.7,8.6 1.4,9.1 1.4,9.7 C1.4,9.9 1.4,10.1 1.5,10.3 C1.9,11 2.5,12.1 2.5,12.1 C2.5,12.1 2.7,12.7 3.6,12.7 L20.8,12.7 "/>
<path class="TimeSig" transform="matrix(1.008,0,0,1.008,240.156,622.805)" d="M20.8,12.7 L20.8,20.1 L12.5,20.1 C11.8,20.1 11.1,20.7 11.1,21.5 L11.1,23.4 C11.1,24.2 11.8,24.8 12.5,24.8 L42.8,24.8 C43.6,24.8 44.2,24.2 44.2,23.4 L44.2,21.5 C44.2,20.7 43.6,20.1 42.8,20.1 L33.9,20.1 L33.9,12.7 L42.8,12.7 C43.6,12.7 44.2,12 44.2,11.2 L44.2,9.3 C44.2,8.6 43.6,7.9 42.8,7.9 L33.9,7.9 L33.9,-8 C33.9,-8.6 33.6,-9.1 33.1,-9.3 L31.9,-9.9 C31.7,-10 31.4,-10.1 31.2,-10.1 C30.9,-10 30.5,-9.9 30.3,-9.7 L21.2,-1.4 C20.9,-1.1 20.8,-0.7 20.8,-0.3 L20.8,7.9 L9.3,7.9 C9.3,7.9 20.4,-4.1 32.2,-19.9 C32.6,-20.4 32.7,-20.9 32.7,-21.3 C32.7,-21.8 32.5,-22.2 32.4,-22.3 L30.2,-24.5 C30,-24.7 29.6,-24.9 29.2,-24.9 C28.6,-24.9 15.1,-24.9 14.4,-24.9 C13.6,-24.9 13.1,-24.3 13,-23.7 C13,-23.7 12.5,-16.3 9.9,-8.2 C7.3,-0.1 4.3,4.9 1.7,8.6 C1.7,8.6 1.4,9.1 1.4,9.7 C1.4,9.9 1.4,10.1 1.5,10.3 C1.9,11 2.5,12.1 2.5,12.1 C2.5,12.1 2.7,12.7 3.6,12.7 L20.8,12.7 "/>
<path class="Rest" transform="matrix(1.008,0,0,1.008,627.108,307.805)" d="M1.4,-0.5 C0.6,-0.5 0,0.1 0,0.9 L0,11.7 C0,12.5 0.6,13.1 1.4,13.1 L31.1,13.1 C31.9,13.1 32.5,12.5 32.5,11.7 L32.5,0.9 C32.5,0.1 31.9,-0.5 31.1,-0.5 L1.4,-0.5 "/>
<path class="Rest" transform="matrix(1.008,0,0,1.008,1339.76,572.405)" d="M1.4,-0.5 C0.6,-0.5 0,0.1 0,0.9 L0,11.7 C0,12.5 0.6,13.1 1.4,13.1 L31.1,13.1 C31.9,13.1 32.5,12.5 32.5,11.7 L32.5,0.9 C32.5,0.1 31.9,-0.5 31.1,-0.5 L1.4,-0.5 "/>
<path class="OttavaSegment" d="M1566.95,100.854 C1566.95,96.9149 1565.03,93.3799 1561.4,91.0569 C1566.95,88.9359 1569.58,86.0069 1569.58,81.8659 C1569.58,76.5129 1564.93,72.9779 1558.27,72.9779 C1549.98,72.9779 1544.13,78.0279 1544.13,85.0979 C1544.13,88.5319 1545.34,90.8549 1548.37,93.4809 C1546.05,94.3899 1544.33,95.1979 1542.81,96.3089 C1540.29,98.3289 1538.67,101.258 1538.67,104.187 C1538.67,109.641 1543.72,113.277 1551.2,113.277 C1560.59,113.277 1566.95,108.126 1566.95,100.854 M1545.44,103.884 C1545.44,100.248 1547.26,97.2179 1550.49,95.2989 C1551.3,95.8039 1551.4,95.8039 1552.11,96.1069 C1554.23,97.2179 1554.23,97.2179 1554.63,97.4199 C1558.17,99.5409 1559.68,101.46 1559.68,104.187 C1559.68,107.823 1556.55,110.55 1552.31,110.55 C1548.17,110.55 1545.44,107.924 1545.44,103.884 M1563.32,81.9669 C1563.32,85.1989 1562.1,87.2189 1559.18,89.4409 C1556.04,87.8249 1555.54,87.6229 1554.73,87.1179 C1551.9,85.4009 1550.99,84.0879 1550.99,81.6639 C1550.99,78.2299 1553.52,75.8059 1557.26,75.8059 C1560.99,75.8059 1563.32,78.1289 1563.32,81.9669"/>
<polyline class="OttavaSegment" fill="none" stroke="#000000" stroke-dasharray="16.632,-6.678" stroke-dashoffset="0" stroke-width="2.77" stroke-linejoin="miter" stroke-miterlimit="2" points="1603.55,99.566 1603.55,72.98"/>
<polyline class="OttavaSegment" fill="none" stroke="#000000" stroke-dasharray="16.632,-10.4944" stroke-dashoffset="0" stroke-width="2.77" stroke-linejoin="miter" stroke-miterlimit="2" points="1582.16,74.366 1604.93,74.366"/>
<path class="OttavaSegment" d="M363.377,757.527 C363.377,753.588 361.458,750.053 357.822,747.73 C363.377,745.609 366.003,742.68 366.003,738.539 C366.003,733.186 361.357,729.651 354.691,729.651 C346.409,729.651 340.551,734.701 340.551,741.771 C340.551,745.205 341.763,747.528 344.793,750.154 C342.47,751.063 340.753,751.871 339.238,752.982 C336.713,755.002 335.097,757.931 335.097,760.86 C335.097,766.314 340.147,769.95 347.621,769.95 C357.014,769.95 363.377,764.799 363.377,757.527 M341.864,760.557 C341.864,756.921 343.682,753.891 346.914,751.972 C347.722,752.477 347.823,752.477 348.53,752.78 C350.651,753.891 350.651,753.891 351.055,754.093 C354.59,756.214 356.105,758.133 356.105,760.86 C356.105,764.496 352.974,767.223 348.732,767.223 C344.591,767.223 341.864,764.597 341.864,760.557 M359.741,738.64 C359.741,741.872 358.529,743.892 355.6,746.114 C352.469,744.498 351.964,744.296 351.156,743.791 C348.328,742.074 347.419,740.761 347.419,738.337 C347.419,734.903 349.944,732.479 353.681,732.479 C357.418,732.479 359.741,734.802 359.741,738.64"/>
<polyline class="OttavaSegment" fill="none" stroke="#000000" stroke-dasharray="16.632,-6.678" stroke-dashoffset="0" stroke-width="2.77" stroke-linejoin="miter" stroke-miterlimit="2" points="399.971,743.364 399.971,769.95"/>
<polyline class="OttavaSegment" fill="none" stroke="#000000" stroke-dasharray="16.632,-10.4944" stroke-dashoffset="0" stroke-width="2.77" stroke-linejoin="miter" stroke-miterlimit="2" points="378.588,768.564 401.357,768.564"/>
<path class="Bracket" transform="matrix(3.654,0,0,3.654,94.2283,648.005)" d="M0.9,-50 C2.7,-51.9 6.2,-55.8 6.2,-63 C6.2,-72.1 2.3,-81.3 2.3,-87 C2.3,-93.1 5.8,-98.8 6,-99 C6,-99.1 6,-99.1 6,-99.2 C6,-99.3 6,-99.4 5.9,-99.5 C5.8,-99.5 5.6,-99.5 5.5,-99.3 C5.4,-99.2 0,-93.8 0,-85.6 C0,-76.8 3.5,-70.6 3.5,-59.1 C3.5,-56.9 2.6,-53.4 0.1,-50.3 C0,-50.3 0,-50.1 -0.1,-50 C-0.1,-49.9 0,-49.8 0.1,-49.7 C2.6,-46.6 3.5,-43.1 3.5,-40.9 C3.5,-29.4 0,-23.2 0,-14.4 C0,-6.3 5.4,-0.8 5.5,-0.7 C5.6,-0.5 5.8,-0.4 5.9,-0.5 C6,-0.6 6.1,-0.7 6,-0.8 C6,-0.8 6,-0.9 6,-1 C5.8,-1.2 2.3,-6.9 2.3,-13 C2.3,-18.7 6.2,-27.9 6.2,-37 C6.2,-44.3 2.7,-48.1 0.9,-50"/>
</svg>
