<?xml version="1.0" encoding="UTF-8" standalone="no"?>
<svg width="1800px" height="360px" viewBox="0 0 1800 360"
 xmlns="http://www.w3.org/2000/svg" xmlns:xlink="http://www.w3.org/1999/xlink" version="1.2" baseProfile="tiny">
<title>svg_template</title>
<desc>Generated by MuseScore Studio 4.4.4</desc>
<path class="" fill="#ffffff" fill-rule="evenodd" d="M0,0 L1800,0 L1800,360 L0,360 L0,0 "/>
<polyline class="StaffLines" fill="none" stroke="#000000" stroke-width="2.77" stroke-linejoin="bevel" points="126,108.272 1710,108.272"/>
<polyline class="StaffLines" fill="none" stroke="#000000" stroke-width="2.77" stroke-linejoin="bevel" points="126,133.472 1710,133.472"/>
<polyline class="StaffLines" fill="none" stroke="#000000" stroke-width="2.77" stroke-linejoin="bevel" points="126,158.672 1710,158.672"/>
<polyline class="StaffLines" fill="none" stroke="#000000" stroke-width="2.77" stroke-linejoin="bevel" points="126,183.872 1710,183.872"/>
<polyline class="StaffLines" fill="none" stroke="#000000" stroke-width="2.77" stroke-linejoin="bevel" points="126,209.072 1710,209.072"/>
<polyline class="BarLine" fill="none" stroke="#000000" stroke-width="4.54" stroke-linejoin="bevel" points="1707.73,106.886 1707.73,210.458"/>
<polyline class="Stem" fill="none" stroke="#000000" stroke-width="2.52" stroke-linejoin="bevel" points="815.239,179.84 815.239,95.6722"/>
<polyline class="Stem" fill="none" stroke="#000000" stroke-width="2.52" stroke-linejoin="bevel" points="1156.15,179.84 1156.15,95.6722"/>
<polyline class="Stem" fill="none" stroke="#000000" stroke-width="2.52" stroke-linejoin="bevel" points="1383.42,179.84 1383.42,108.272"/>
<polyline class="Stem" fill="none" stroke="#000000" stroke-width="2.52" stroke-linejoin="bevel" points="1534.93,179.84 1534.93,108.272"/>
<path class="Note" transform="matrix(1.008,0,0,1.008,269.971,183.872)" d="M18.7,-13.6 C4.9,-13.6 0,-6.6 0,-0.1 C0,6.4 4.9,13.4 18.7,13.4 C32.5,13.4 37.3,6.4 37.3,-0.1 C37.3,-6.6 32.5,-13.6 18.7,-13.6 M19.5,10.2 C16.7,10.2 14.8,9.4 13.5,6.9 C12.2,4.4 10.4,-2.1 10.3,-4.7 C10.1,-7.4 11.1,-9 13.5,-9.8 C14.7,-10.2 16.3,-10.4 17.9,-10.4 C20.6,-10.4 22.4,-9.8 23.8,-7.1 C25.2,-4.5 27.1,2 27.1,4.5 C27.1,9.4 23.5,10.2 19.5,10.2"/>
<path class="Note" transform="matrix(1.008,0,0,1.008,783.755,183.872)" d="M21.3,-13.2 C11.6,-13.2 0,-5.1 0,4.2 C0,8.5 3.1,13.3 11.2,13.3 C21.6,13.3 32.5,4.8 32.5,-4 C32.5,-9.9 27.5,-13.2 21.3,-13.2 M7.5,8.6 C4.2,8.6 3.5,5.9 3.5,5 C3.5,0.1 20.3,-8.5 25,-8.5 C27.4,-8.5 29,-7.1 29,-4.9 C29,0.1 12.1,8.6 7.5,8.6"/>
<path class="Note" transform="matrix(1.008,0,0,1.008,1124.66,183.872)" d="M0,4.2 C0,8.5 3.1,13.3 11.2,13.3 C21.6,13.3 32.5,4.8 32.5,-4 C32.5,-9.9 27.5,-13.2 21.3,-13.2 C11.6,-13.2 0,-5 0,4.2"/>
<path class="Note" transform="matrix(1.008,0,0,1.008,1351.93,183.872)" d="M0,4.2 C0,8.5 3.1,13.3 11.2,13.3 C21.6,13.3 32.5,4.8 32.5,-4 C32.5,-9.9 27.5,-13.2 21.3,-13.2 C11.6,-13.2 0,-5 0,4.2"/>
<path class="Note" transform="matrix(1.008,0,0,1.008,1503.45,183.872)" d="M0,4.2 C0,8.5 3.1,13.3 11.2,13.3 C21.6,13.3 32.5,4.8 32.5,-4 C32.5,-9.9 27.5,-13.2 21.3,-13.2 C11.6,-13.2 0,-5 0,4.2"/>
<path class="Clef" transform="matrix(1.008,0,0,1.008,144.9,183.872)" d="M12.3,51.3 C12.3,57.9 17.3,66.6 30.8,66.6 C35.5,66.6 39.6,65.4 43.2,63.2 C48.6,59.4 50,52.8 50,46.5 C50,42.6 49.4,38.1 48.4,32.4 C48.1,30.4 47.5,27.4 46.9,23.5 C56.7,20.3 64,10.1 64,-0.2 C64,-15.3 53.3,-25.5 38.7,-25.5 C37.7,-31.5 36.7,-37.4 35.9,-43 C46.4,-54.1 53.7,-66.6 53.7,-82.5 C53.7,-91.6 50.9,-99 49.3,-102.6 C46.9,-107.7 44,-111.2 42.2,-111.2 C41.5,-111.2 38.4,-110 35.1,-106.1 C28.7,-98.5 26.9,-85.7 26.9,-77.3 C26.9,-71.9 27.4,-67 29.1,-55.8 C29,-55.7 23.8,-50.4 21.7,-48.7 C12.6,-40.3 0,-28.1 0,-8.1 C0,10.6 16.3,25.3 34.9,25.3 C37.8,25.3 40.5,25 42.8,24.6 C44.7,34.2 45.9,41.2 45.9,46.5 C45.9,56.9 40.5,62.4 30.4,62.4 C28,62.4 25.9,61.9 25.7,61.9 C25.6,61.8 25.4,61.7 25.4,61.6 C25.4,61.4 25.6,61.3 25.9,61.3 C30.6,60.5 35.3,56.5 35.3,50.1 C35.3,44.7 31.2,39 23.7,39 C16.7,39 12.3,44.7 12.3,51.3 M33.2,-82.2 C34.1,-86.2 38.7,-96.7 43.9,-96.7 C45.4,-96.7 47.8,-91.9 47.8,-84.9 C47.8,-74.5 40.1,-66.7 33.2,-59.9 C32.6,-63.9 32.1,-67.8 32.1,-72 C32.1,-75.7 32.4,-79.1 33.2,-82.2 M42,20.6 C40,21 38.1,21.2 36.2,21.2 C21.9,21.2 9.7,11.2 9.7,-3.9 C9.7,-16.1 18.3,-27 27.1,-34.6 C28.8,-36.1 30.4,-37.5 31.9,-39 C32.8,-33.6 33.5,-28.9 34.2,-24.8 C25.1,-22.1 18.9,-12.5 18.9,-3.1 C18.9,3.9 24.4,13.5 32.4,13.5 C33.2,13.5 34.1,13.1 34.1,12.2 C34.1,11.3 33.1,10.8 31.9,10 C28,7.6 25.8,5 25.8,0.1 C25.8,-6 30.4,-10.9 36.2,-12.3 L42,20.6 M56.2,2.1 C56.2,9.2 53.3,16.5 46.2,19.4 C44.1,7.4 41.4,-8.5 40.7,-12.9 C49.7,-12.9 56.2,-6.8 56.2,2.1"/>
<path class="Beam" fill-rule="evenodd" d="M1382.16,101.972 L1536.19,101.972 L1536.19,114.572 L1382.16,114.572 L1382.16,101.972 "/>
<path class="Beam" fill-rule="evenodd" d="M1536.19,120.872 L1508.47,120.872 L1508.47,133.472 L1536.19,133.472 L1536.19,120.872 "/>
</svg>
