<?xml version="1.0" encoding="UTF-8" standalone="no"?>
<svg width="1800px" height="360px" viewBox="0 0 1800 360"
 xmlns="http://www.w3.org/2000/svg" xmlns:xlink="http://www.w3.org/1999/xlink" version="1.2" baseProfile="tiny">
<title>single_measure</title>
<desc>Generated by MuseScore Studio 4.4.4</desc>
<polyline class="StaffLines" fill="none" stroke="#000000" stroke-width="2.73" stroke-linejoin="bevel" points="124,109.143 1684.8,109.143"/>
<polyline class="StaffLines" fill="none" stroke="#000000" stroke-width="2.73" stroke-linejoin="bevel" points="124,133.943 1684.8,133.943"/>
<polyline class="StaffLines" fill="none" stroke="#000000" stroke-width="2.73" stroke-linejoin="bevel" points="124,158.743 1684.8,158.743"/>
<polyline class="StaffLines" fill="none" stroke="#000000" stroke-width="2.73" stroke-linejoin="bevel" points="124,183.543 1684.8,183.543"/>
<polyline class="StaffLines" fill="none" stroke="#000000" stroke-width="2.73" stroke-linejoin="bevel" points="124,208.343 1684.8,208.343"/>
<polyline class="BarLine" fill="none" stroke="#000000" stroke-width="4.46" stroke-linejoin="bevel" points="1659.75,107.779 1659.75,209.707"/>
<polyline class="BarLine" fill="none" stroke="#000000" stroke-width="13.64" stroke-linejoin="bevel" points="1677.98,107.779 1677.98,209.707"/>
<polyline class="LedgerLine" fill="none" stroke="#000000" stroke-width="3.97" stroke-linejoin="bevel" points="302.684,233.143 351.276,233.143"/>
<polyline class="Stem" fill="none" stroke="#000000" stroke-width="2.48" stroke-linejoin="bevel" points="341.852,229.175 341.852,146.343"/>
<polyline class="Stem" fill="none" stroke="#000000" stroke-width="2.48" stroke-linejoin="bevel" points="1553.84,142.375 1553.84,78.2"/>
<polyline class="Stem" fill="none" stroke="#000000" stroke-width="2.48" stroke-linejoin="bevel" points="543.85,216.775 543.85,133.943"/>
<polyline class="Stem" fill="none" stroke="#000000" stroke-width="2.48" stroke-linejoin="bevel" points="1419.17,154.775 1419.17,84.3622"/>
<polyline class="Stem" fill="none" stroke="#000000" stroke-width="2.48" stroke-linejoin="bevel" points="745.848,204.375 745.848,121.543"/>
<polyline class="Stem" fill="none" stroke="#000000" stroke-width="2.48" stroke-linejoin="bevel" points="947.846,191.975 947.846,109.143"/>
<polyline class="Stem" fill="none" stroke="#000000" stroke-width="2.48" stroke-linejoin="bevel" points="1149.84,179.575 1149.84,96.6865"/>
<polyline class="Stem" fill="none" stroke="#000000" stroke-width="2.48" stroke-linejoin="bevel" points="1284.51,167.175 1284.51,90.5243"/>
<path class="Note" transform="matrix(0.992,0,0,0.992,916.861,195.943)" d="M0,4.2 C0,8.5 3.1,13.3 11.2,13.3 C21.6,13.3 32.5,4.8 32.5,-4 C32.5,-9.9 27.5,-13.2 21.3,-13.2 C11.6,-13.2 0,-5 0,4.2"/>
<path class="Note" transform="matrix(0.992,0,0,0.992,1118.86,183.543)" d="M0,4.2 C0,8.5 3.1,13.3 11.2,13.3 C21.6,13.3 32.5,4.8 32.5,-4 C32.5,-9.9 27.5,-13.2 21.3,-13.2 C11.6,-13.2 0,-5 0,4.2"/>
<path class="Note" transform="matrix(0.992,0,0,0.992,1253.52,171.143)" d="M0,4.2 C0,8.5 3.1,13.3 11.2,13.3 C21.6,13.3 32.5,4.8 32.5,-4 C32.5,-9.9 27.5,-13.2 21.3,-13.2 C11.6,-13.2 0,-5 0,4.2"/>
<path class="Note" transform="matrix(0.992,0,0,0.992,714.864,208.343)" d="M0,4.2 C0,8.5 3.1,13.3 11.2,13.3 C21.6,13.3 32.5,4.8 32.5,-4 C32.5,-9.9 27.5,-13.2 21.3,-13.2 C11.6,-13.2 0,-5 0,4.2"/>
<path class="Note" transform="matrix(0.992,0,0,0.992,512.866,220.743)" d="M0,4.2 C0,8.5 3.1,13.3 11.2,13.3 C21.6,13.3 32.5,4.8 32.5,-4 C32.5,-9.9 27.5,-13.2 21.3,-13.2 C11.6,-13.2 0,-5 0,4.2"/>
<path class="Note" transform="matrix(0.992,0,0,0.992,1388.19,158.743)" d="M0,4.2 C0,8.5 3.1,13.3 11.2,13.3 C21.6,13.3 32.5,4.8 32.5,-4 C32.5,-9.9 27.5,-13.2 21.3,-13.2 C11.6,-13.2 0,-5 0,4.2"/>
<path class="Note" transform="matrix(0.992,0,0,0.992,310.868,233.143)" d="M0,4.2 C0,8.5 3.1,13.3 11.2,13.3 C21.6,13.3 32.5,4.8 32.5,-4 C32.5,-9.9 27.5,-13.2 21.3,-13.2 C11.6,-13.2 0,-5 0,4.2"/>
<path class="Note" transform="matrix(0.992,0,0,0.992,1522.85,146.343)" d="M0,4.2 C0,8.5 3.1,13.3 11.2,13.3 C21.6,13.3 32.5,4.8 32.5,-4 C32.5,-9.9 27.5,-13.2 21.3,-13.2 C11.6,-13.2 0,-5 0,4.2"/>
<path class="Clef" transform="matrix(0.992,0,0,0.992,142.6,183.543)" d="M12.3,51.3 C12.3,57.9 17.3,66.6 30.8,66.6 C35.5,66.6 39.6,65.4 43.2,63.2 C48.6,59.4 50,52.8 50,46.5 C50,42.6 49.4,38.1 48.4,32.4 C48.1,30.4 47.5,27.4 46.9,23.5 C56.7,20.3 64,10.1 64,-0.2 C64,-15.3 53.3,-25.5 38.7,-25.5 C37.7,-31.5 36.7,-37.4 35.9,-43 C46.4,-54.1 53.7,-66.6 53.7,-82.5 C53.7,-91.6 50.9,-99 49.3,-102.6 C46.9,-107.7 44,-111.2 42.2,-111.2 C41.5,-111.2 38.4,-110 35.1,-106.1 C28.7,-98.5 26.9,-85.7 26.9,-77.3 C26.9,-71.9 27.4,-67 29.1,-55.8 C29,-55.7 23.8,-50.4 21.7,-48.7 C12.6,-40.3 0,-28.1 0,-8.1 C0,10.6 16.3,25.3 34.9,25.3 C37.8,25.3 40.5,25 42.8,24.6 C44.7,34.2 45.9,41.2 45.9,46.5 C45.9,56.9 40.5,62.4 30.4,62.4 C28,62.4 25.9,61.9 25.7,61.9 C25.6,61.8 25.4,61.7 25.4,61.6 C25.4,61.4 25.6,61.3 25.9,61.3 C30.6,60.5 35.3,56.5 35.3,50.1 C35.3,44.7 31.2,39 23.7,39 C16.7,39 12.3,44.7 12.3,51.3 M33.2,-82.2 C34.1,-86.2 38.7,-96.7 43.9,-96.7 C45.4,-96.7 47.8,-91.9 47.8,-84.9 C47.8,-74.5 40.1,-66.7 33.2,-59.9 C32.6,-63.9 32.1,-67.8 32.1,-72 C32.1,-75.7 32.4,-79.1 33.2,-82.2 M42,20.6 C40,21 38.1,21.2 36.2,21.2 C21.9,21.2 9.7,11.2 9.7,-3.9 C9.7,-16.1 18.3,-27 27.1,-34.6 C28.8,-36.1 30.4,-37.5 31.9,-39 C32.8,-33.6 33.5,-28.9 34.2,-24.8 C25.1,-22.1 18.9,-12.5 18.9,-3.1 C18.9,3.9 24.4,13.5 32.4,13.5 C33.2,13.5 34.1,13.1 34.1,12.2 C34.1,11.3 33.1,10.8 31.9,10 C28,7.6 25.8,5 25.8,0.1 C25.8,-6 30.4,-10.9 36.2,-12.3 L42,20.6 M56.2,2.1 C56.2,9.2 53.3,16.5 46.2,19.4 C44.1,7.4 41.4,-8.5 40.7,-12.9 C49.7,-12.9 56.2,-6.8 56.2,2.1"/>
<path class="KeySig" transform="matrix(0.992,0,0,0.992,224.672,109.143)" d="M23.3,-10.5 C23.9,-10.6 24.4,-11.3 24.4,-11.9 L24.4,-17.8 C24.4,-18.8 23.7,-19.2 22.8,-19.2 L19.5,-18.5 L19.5,-33.4 L16.7,-33.4 L16.7,-17.9 L7.8,-16.1 L7.8,-30.2 L5,-30.2 L5,-15.5 L1.1,-14.7 C0.5,-14.6 0,-13.9 0,-13.3 L0,-7.5 C0,-6.4 0.8,-6.1 1.7,-6.1 L5,-6.8 L5,9.7 L1.1,10.5 C0.5,10.6 0,11.3 0,11.9 L0,17.7 C0,18.8 0.8,19.1 1.7,19.1 L5,18.4 L5,33.3 L7.8,33.3 L7.8,17.8 L16.7,16 L16.7,30.1 L19.5,30.1 L19.5,15.4 L23.3,14.7 C23.9,14.6 24.4,13.9 24.4,13.3 L24.4,7.4 C24.4,6.4 23.7,6 22.8,6 L19.5,6.7 L19.5,-9.8 L23.3,-10.5 M7.8,-7.4 L16.7,-9.2 L16.7,7.3 L7.8,9.2 L7.8,-7.4 "/>
<path class="Dynamic" d="M1148.18,274.08 L1148.18,272.1 L1140.75,272.1 L1146.49,256.161 L1146.79,256.854 C1146.79,256.854 1147.78,259.032 1151.15,259.923 C1151.74,260.121 1152.43,260.121 1153.03,260.121 C1161.44,260.121 1166.79,248.538 1166.79,241.014 C1166.79,236.955 1164.41,232.104 1159.86,232.104 C1156.79,232.104 1153.72,234.678 1152.04,236.361 L1151.74,236.658 L1151.54,236.262 C1151.54,236.262 1149.46,232.5 1146,232.005 C1145.9,232.005 1145.8,232.005 1145.7,232.005 L1145.21,231.906 C1139.56,231.906 1136.99,237.846 1135.41,242.4 L1137.19,243.291 C1137.58,242.004 1138.57,238.836 1139.76,237.252 C1140.36,236.361 1141.54,235.569 1142.43,235.371 C1142.53,235.371 1142.73,235.371 1142.83,235.371 C1143.13,235.371 1143.42,235.371 1143.62,235.569 C1144.02,235.866 1144.12,236.361 1144.12,237.054 C1144.12,239.43 1142.34,243.786 1141.84,244.776 L1132.04,272.1 L1126,272.1 L1126,274.08 L1148.18,274.08 M1131.45,253.587 C1130.95,254.478 1130.46,254.676 1129.96,254.676 C1129.76,254.676 1129.66,254.676 1129.47,254.577 C1128.97,254.379 1128.77,253.983 1128.77,253.488 C1128.77,252.696 1130.06,248.043 1130.46,247.152 C1131.05,245.37 1131.74,241.311 1131.74,238.638 C1131.74,238.143 1131.74,237.648 1131.64,237.252 C1131.15,234.579 1129.96,233.292 1127.88,233.292 C1125.31,233.292 1122.54,235.173 1121.25,236.856 L1121.05,237.252 L1120.85,236.757 C1120.85,236.757 1119.27,233.292 1116.6,233.292 C1113.82,233.292 1111.74,234.381 1110.06,236.658 L1109.76,237.054 L1109.67,236.559 C1109.67,236.559 1108.38,233.688 1105.9,233.193 C1105.41,233.094 1104.91,233.094 1104.52,233.094 C1100.46,233.094 1098.28,237.252 1097.19,240.618 L1098.68,241.41 C1098.68,241.41 1100.36,236.064 1102.54,236.064 C1102.74,236.064 1102.83,236.064 1103.03,236.163 C1103.63,236.361 1103.82,236.856 1103.82,237.648 C1103.82,239.034 1103.03,241.41 1101.94,244.578 C1101.94,244.677 1098.28,255.666 1097.98,256.656 L1097.88,256.953 C1097.88,257.25 1097.98,257.448 1098.08,257.646 C1098.28,257.844 1098.48,258.042 1098.87,258.042 L1104.12,258.042 C1104.32,258.042 1104.81,258.042 1105.21,256.458 C1106.2,251.904 1110.36,236.658 1114.02,236.658 C1114.22,236.658 1114.52,236.757 1114.62,236.955 C1114.81,237.153 1114.91,237.549 1114.91,238.044 C1114.91,239.727 1113.92,242.895 1112.73,246.954 C1111.25,251.805 1109.76,256.458 1109.76,256.458 C1109.76,256.557 1109.76,256.656 1109.76,256.854 C1109.76,257.547 1109.96,258.042 1110.75,258.042 L1116.2,258.042 C1116.6,258.042 1117.09,257.943 1117.29,256.854 C1117.29,256.755 1117.39,256.458 1117.39,256.161 C1119.37,242.301 1122.54,238.143 1124.91,237.153 L1125.01,237.054 C1125.11,237.054 1125.11,237.054 1125.11,237.054 L1125.21,237.054 C1125.31,237.153 1125.41,237.153 1125.41,237.153 C1125.6,237.252 1125.9,237.549 1125.9,238.044 C1125.9,239.034 1125.31,242.994 1123.23,248.34 C1122.63,249.924 1122.34,251.409 1122.34,252.795 C1122.34,255.864 1123.92,258.141 1127.29,258.141 C1131.74,258.141 1133.43,254.577 1134.81,250.914 L1134.81,250.617 C1134.91,250.617 1134.91,250.518 1134.91,250.518 L1133.23,249.726 C1133.23,249.726 1132.14,252.399 1131.45,253.587 M1150.95,256.755 C1150.75,256.755 1150.35,256.755 1150.16,256.656 C1148.67,256.062 1148.28,254.28 1148.28,252.399 C1148.28,249.33 1149.36,245.766 1149.46,245.568 C1150.16,242.499 1153.92,235.569 1157.78,235.569 C1157.98,235.569 1158.27,235.569 1158.47,235.668 C1159.66,235.965 1159.86,237.846 1159.86,238.836 C1159.86,243.588 1156.39,254.478 1152.04,256.557 C1151.74,256.755 1151.25,256.755 1150.95,256.755"/>
<path class="Dynamic" d="M322.899,306.834 C320.226,306.834 317.751,309.309 317.751,311.982 C317.751,317.13 321.216,320.001 325.77,320.001 C328.938,320.001 331.215,319.011 333.69,316.536 C338.046,312.18 342.798,297.429 345.174,289.014 C346.065,285.846 346.956,282.777 347.649,280.5 L347.649,280.302 L354.777,280.302 C355.371,280.302 355.767,279.906 355.767,279.312 L355.767,277.134 C355.767,276.54 355.371,276.144 354.777,276.144 L348.936,276.144 L348.936,275.847 C351.708,265.749 352.5,263.967 353.985,262.779 C354.777,262.185 355.47,261.987 355.965,261.987 C356.163,261.987 356.361,262.086 356.46,262.086 C357.054,262.185 357.549,262.779 357.549,263.373 C357.549,263.868 357.351,264.363 356.955,264.561 C355.965,265.353 355.47,266.64 355.47,268.026 C355.47,268.521 355.569,268.917 355.668,269.412 C355.965,270.303 356.757,271.194 357.747,271.59 C358.143,271.788 358.836,271.986 359.529,271.986 C361.608,271.986 363.687,270.402 364.182,268.422 C364.38,267.927 364.38,267.333 364.38,266.739 C364.38,261.789 359.925,259.215 355.47,259.215 C346.263,259.215 342.204,268.62 339.729,275.946 L339.729,276.144 L332.205,276.144 C331.611,276.144 331.215,276.54 331.215,277.134 L331.215,279.312 C331.215,279.906 331.611,280.302 332.205,280.302 L338.343,280.302 L338.343,280.698 C337.353,284.658 336.561,288.024 335.868,291.291 C335.076,294.954 334.185,298.716 332.997,303.27 L332.7,304.458 C330.621,312.576 330.027,315.447 327.651,317.031 C327.156,317.328 326.562,317.526 325.968,317.526 C325.473,317.526 324.978,317.328 324.582,317.031 C324.186,316.734 324.087,316.437 324.087,315.942 C324.186,315.546 324.384,315.15 324.879,314.952 C326.76,314.16 327.354,312.378 327.354,310.794 C327.354,309.408 326.463,306.834 322.899,306.834 M327.849,296.538 C327.354,297.429 326.859,297.627 326.364,297.627 C326.166,297.627 326.067,297.627 325.869,297.528 C325.374,297.33 325.176,296.934 325.176,296.439 C325.176,295.647 326.463,290.994 326.859,290.103 C327.453,288.321 328.146,284.262 328.146,281.589 C328.146,281.094 328.146,280.599 328.047,280.203 C327.552,277.53 326.364,276.243 324.285,276.243 C321.711,276.243 318.939,278.124 317.652,279.807 L317.454,280.203 L317.256,279.708 C317.256,279.708 315.672,276.243 312.999,276.243 C310.227,276.243 308.148,277.332 306.465,279.609 L306.168,280.005 L306.069,279.51 C306.069,279.51 304.782,276.639 302.307,276.144 C301.812,276.045 301.317,276.045 300.921,276.045 C296.862,276.045 294.684,280.203 293.595,283.569 L295.08,284.361 C295.08,284.361 296.763,279.015 298.941,279.015 C299.139,279.015 299.238,279.015 299.436,279.114 C300.03,279.312 300.228,279.807 300.228,280.599 C300.228,281.985 299.436,284.361 298.347,287.529 C298.347,287.628 294.684,298.617 294.387,299.607 L294.288,299.904 C294.288,300.201 294.387,300.399 294.486,300.597 C294.684,300.795 294.882,300.993 295.278,300.993 L300.525,300.993 C300.723,300.993 301.218,300.993 301.614,299.409 C302.604,294.855 306.762,279.609 310.425,279.609 C310.623,279.609 310.92,279.708 311.019,279.906 C311.217,280.104 311.316,280.5 311.316,280.995 C311.316,282.678 310.326,285.846 309.138,289.905 C307.653,294.756 306.168,299.409 306.168,299.409 C306.168,299.508 306.168,299.607 306.168,299.805 C306.168,300.498 306.366,300.993 307.158,300.993 L312.603,300.993 C312.999,300.993 313.494,300.894 313.692,299.805 C313.692,299.706 313.791,299.409 313.791,299.112 C315.771,285.252 318.939,281.094 321.315,280.104 L321.414,280.005 C321.513,280.005 321.513,280.005 321.513,280.005 L321.612,280.005 C321.711,280.104 321.81,280.104 321.81,280.104 C322.008,280.203 322.305,280.5 322.305,280.995 C322.305,281.985 321.711,285.945 319.632,291.291 C319.038,292.875 318.741,294.36 318.741,295.746 C318.741,298.815 320.325,301.092 323.691,301.092 C328.146,301.092 329.829,297.528 331.215,293.865 L331.215,293.568 C331.314,293.568 331.314,293.469 331.314,293.469 L329.631,292.677 C329.631,292.677 328.542,295.35 327.849,296.538"/>
<path class="Beam" fill-rule="evenodd" d="M1148.6,90.5368 L1555.08,71.9368 L1555.08,84.3497 L1148.6,102.95 L1148.6,90.5368 "/>
</svg>
