<?xml version="1.0" encoding="UTF-8" standalone="no"?>
<svg width="1800px" height="360px" viewBox="0 0 1800 360"
 xmlns="http://www.w3.org/2000/svg" xmlns:xlink="http://www.w3.org/1999/xlink" version="1.2" baseProfile="tiny">
<title>single_measure</title>
<desc>Generated by MuseScore Studio 4.4.4</desc>
<polyline class="StaffLines" fill="none" stroke="#000000" stroke-width="2.73" stroke-linejoin="bevel" points="124,109.144 1684.8,109.144"/>
<polyline class="StaffLines" fill="none" stroke="#000000" stroke-width="2.73" stroke-linejoin="bevel" points="124,133.944 1684.8,133.944"/>
<polyline class="StaffLines" fill="none" stroke="#000000" stroke-width="2.73" stroke-linejoin="bevel" points="124,158.744 1684.8,158.744"/>
<polyline class="StaffLines" fill="none" stroke="#000000" stroke-width="2.73" stroke-linejoin="bevel" points="124,183.544 1684.8,183.544"/>
<polyline class="StaffLines" fill="none" stroke="#000000" stroke-width="2.73" stroke-linejoin="bevel" points="124,208.344 1684.8,208.344"/>
<polyline class="BarLine" fill="none" stroke="#000000" stroke-width="4.46" stroke-linejoin="bevel" points="1682.57,107.78 1682.57,209.708"/>
<polyline class="LedgerLine" fill="none" stroke="#000000" stroke-width="3.97" stroke-linejoin="bevel" points="302.684,233.144 351.276,233.144"/>
<polyline class="Stem" fill="none" stroke="#000000" stroke-width="2.48" stroke-linejoin="bevel" points="341.852,229.176 341.852,146.344"/>
<polyline class="Stem" fill="none" stroke="#000000" stroke-width="2.48" stroke-linejoin="bevel" points="1574.37,142.376 1574.37,78.2"/>
<polyline class="Stem" fill="none" stroke="#000000" stroke-width="2.48" stroke-linejoin="bevel" points="547.273,216.776 547.273,133.944"/>
<polyline class="Stem" fill="none" stroke="#000000" stroke-width="2.48" stroke-linejoin="bevel" points="1437.43,154.776 1437.43,84.3628"/>
<polyline class="Stem" fill="none" stroke="#000000" stroke-width="2.48" stroke-linejoin="bevel" points="752.693,204.376 752.693,121.544"/>
<polyline class="Stem" fill="none" stroke="#000000" stroke-width="2.48" stroke-linejoin="bevel" points="958.113,191.976 958.113,109.144"/>
<polyline class="Stem" fill="none" stroke="#000000" stroke-width="2.48" stroke-linejoin="bevel" points="1163.53,179.576 1163.53,96.6884"/>
<polyline class="Stem" fill="none" stroke="#000000" stroke-width="2.48" stroke-linejoin="bevel" points="1300.48,167.176 1300.48,90.5256"/>
<path class="Note" transform="matrix(0.992,0,0,0.992,927.129,195.944)" d="M0,4.2 C0,8.5 3.1,13.3 11.2,13.3 C21.6,13.3 32.5,4.8 32.5,-4 C32.5,-9.9 27.5,-13.2 21.3,-13.2 C11.6,-13.2 0,-5 0,4.2"/>
<path class="Note" transform="matrix(0.992,0,0,0.992,1132.55,183.544)" d="M0,4.2 C0,8.5 3.1,13.3 11.2,13.3 C21.6,13.3 32.5,4.8 32.5,-4 C32.5,-9.9 27.5,-13.2 21.3,-13.2 C11.6,-13.2 0,-5 0,4.2"/>
<path class="Note" transform="matrix(0.992,0,0,0.992,1269.5,171.144)" d="M0,4.2 C0,8.5 3.1,13.3 11.2,13.3 C21.6,13.3 32.5,4.8 32.5,-4 C32.5,-9.9 27.5,-13.2 21.3,-13.2 C11.6,-13.2 0,-5 0,4.2"/>
<path class="Note" transform="matrix(0.992,0,0,0.992,721.708,208.344)" d="M0,4.2 C0,8.5 3.1,13.3 11.2,13.3 C21.6,13.3 32.5,4.8 32.5,-4 C32.5,-9.9 27.5,-13.2 21.3,-13.2 C11.6,-13.2 0,-5 0,4.2"/>
<path class="Note" transform="matrix(0.992,0,0,0.992,516.288,220.744)" d="M0,4.2 C0,8.5 3.1,13.3 11.2,13.3 C21.6,13.3 32.5,4.8 32.5,-4 C32.5,-9.9 27.5,-13.2 21.3,-13.2 C11.6,-13.2 0,-5 0,4.2"/>
<path class="Note" transform="matrix(0.992,0,0,0.992,1406.44,158.744)" d="M0,4.2 C0,8.5 3.1,13.3 11.2,13.3 C21.6,13.3 32.5,4.8 32.5,-4 C32.5,-9.9 27.5,-13.2 21.3,-13.2 C11.6,-13.2 0,-5 0,4.2"/>
<path class="Note" transform="matrix(0.992,0,0,0.992,310.868,233.144)" d="M0,4.2 C0,8.5 3.1,13.3 11.2,13.3 C21.6,13.3 32.5,4.8 32.5,-4 C32.5,-9.9 27.5,-13.2 21.3,-13.2 C11.6,-13.2 0,-5 0,4.2"/>
<path class="Note" transform="matrix(0.992,0,0,0.992,1543.39,146.344)" d="M0,4.2 C0,8.5 3.1,13.3 11.2,13.3 C21.6,13.3 32.5,4.8 32.5,-4 C32.5,-9.9 27.5,-13.2 21.3,-13.2 C11.6,-13.2 0,-5 0,4.2"/>
<path class="Clef" transform="matrix(0.992,0,0,0.992,142.6,183.544)" d="M12.3,51.3 C12.3,57.9 17.3,66.6 30.8,66.6 C35.5,66.6 39.6,65.4 43.2,63.2 C48.6,59.4 50,52.8 50,46.5 C50,42.6 49.4,38.1 48.4,32.4 C48.1,30.4 47.5,27.4 46.9,23.5 C56.7,20.3 64,10.1 64,-0.2 C64,-15.3 53.3,-25.5 38.7,-25.5 C37.7,-31.5 36.7,-37.4 35.9,-43 C46.4,-54.1 53.7,-66.6 53.7,-82.5 C53.7,-91.6 50.9,-99 49.3,-102.6 C46.9,-107.7 44,-111.2 42.2,-111.2 C41.5,-111.2 38.4,-110 35.1,-106.1 C28.7,-98.5 26.9,-85.7 26.9,-77.3 C26.9,-71.9 27.4,-67 29.1,-55.8 C29,-55.7 23.8,-50.4 21.7,-48.7 C12.6,-40.3 0,-28.1 0,-8.1 C0,10.6 16.3,25.3 34.9,25.3 C37.8,25.3 40.5,25 42.8,24.6 C44.7,34.2 45.9,41.2 45.9,46.5 C45.9,56.9 40.5,62.4 30.4,62.4 C28,62.4 25.9,61.9 25.7,61.9 C25.6,61.8 25.4,61.7 25.4,61.6 C25.4,61.4 25.6,61.3 25.9,61.3 C30.6,60.5 35.3,56.5 35.3,50.1 C35.3,44.7 31.2,39 23.7,39 C16.7,39 12.3,44.7 12.3,51.3 M33.2,-82.2 C34.1,-86.2 38.7,-96.7 43.9,-96.7 C45.4,-96.7 47.8,-91.9 47.8,-84.9 C47.8,-74.5 40.1,-66.7 33.2,-59.9 C32.6,-63.9 32.1,-67.8 32.1,-72 C32.1,-75.7 32.4,-79.1 33.2,-82.2 M42,20.6 C40,21 38.1,21.2 36.2,21.2 C21.9,21.2 9.7,11.2 9.7,-3.9 C9.7,-16.1 18.3,-27 27.1,-34.6 C28.8,-36.1 30.4,-37.5 31.9,-39 C32.8,-33.6 33.5,-28.9 34.2,-24.8 C25.1,-22.1 18.9,-12.5 18.9,-3.1 C18.9,3.9 24.4,13.5 32.4,13.5 C33.2,13.5 34.1,13.1 34.1,12.2 C34.1,11.3 33.1,10.8 31.9,10 C28,7.6 25.8,5 25.8,0.1 C25.8,-6 30.4,-10.9 36.2,-12.3 L42,20.6 M56.2,2.1 C56.2,9.2 53.3,16.5 46.2,19.4 C44.1,7.4 41.4,-8.5 40.7,-12.9 C49.7,-12.9 56.2,-6.8 56.2,2.1"/>
<path class="KeySig" transform="matrix(0.992,0,0,0.992,224.672,109.144)" d="M23.3,-10.5 C23.9,-10.6 24.4,-11.3 24.4,-11.9 L24.4,-17.8 C24.4,-18.8 23.7,-19.2 22.8,-19.2 L19.5,-18.5 L19.5,-33.4 L16.7,-33.4 L16.7,-17.9 L7.8,-16.1 L7.8,-30.2 L5,-30.2 L5,-15.5 L1.1,-14.7 C0.5,-14.6 0,-13.9 0,-13.3 L0,-7.5 C0,-6.4 0.8,-6.1 1.7,-6.1 L5,-6.8 L5,9.7 L1.1,10.5 C0.5,10.6 0,11.3 0,11.9 L0,17.7 C0,18.8 0.8,19.1 1.7,19.1 L5,18.4 L5,33.3 L7.8,33.3 L7.8,17.8 L16.7,16 L16.7,30.1 L19.5,30.1 L19.5,15.4 L23.3,14.7 C23.9,14.6 24.4,13.9 24.4,13.3 L24.4,7.4 C24.4,6.4 23.7,6 22.8,6 L19.5,6.7 L19.5,-9.8 L23.3,-10.5 M7.8,-7.4 L16.7,-9.2 L16.7,7.3 L7.8,9.2 L7.8,-7.4 "/>
<path class="Dynamic" d="M1161.87,274.081 L1161.87,272.101 L1154.44,272.101 L1160.18,256.162 L1160.48,256.855 C1160.48,256.855 1161.47,259.033 1164.84,259.924 C1165.43,260.122 1166.12,260.122 1166.72,260.122 C1175.13,260.122 1180.48,248.539 1180.48,241.015 C1180.48,236.956 1178.1,232.105 1173.55,232.105 C1170.48,232.105 1167.41,234.679 1165.73,236.362 L1165.43,236.659 L1165.23,236.263 C1165.23,236.263 1163.15,232.501 1159.69,232.006 C1159.59,232.006 1159.49,232.006 1159.39,232.006 L1158.9,231.907 C1153.25,231.907 1150.68,237.847 1149.09,242.401 L1150.88,243.292 C1151.27,242.005 1152.26,238.837 1153.45,237.253 C1154.04,236.362 1155.23,235.57 1156.12,235.372 C1156.22,235.372 1156.42,235.372 1156.52,235.372 C1156.82,235.372 1157.11,235.372 1157.31,235.57 C1157.71,235.867 1157.81,236.362 1157.81,237.055 C1157.81,239.431 1156.02,243.787 1155.53,244.777 L1145.73,272.101 L1139.69,272.101 L1139.69,274.081 L1161.87,274.081 M1145.13,253.588 C1144.64,254.479 1144.14,254.677 1143.65,254.677 C1143.45,254.677 1143.35,254.677 1143.15,254.578 C1142.66,254.38 1142.46,253.984 1142.46,253.489 C1142.46,252.697 1143.75,248.044 1144.14,247.153 C1144.74,245.371 1145.43,241.312 1145.43,238.639 C1145.43,238.144 1145.43,237.649 1145.33,237.253 C1144.84,234.58 1143.65,233.293 1141.57,233.293 C1139,233.293 1136.22,235.174 1134.94,236.857 L1134.74,237.253 L1134.54,236.758 C1134.54,236.758 1132.96,233.293 1130.28,233.293 C1127.51,233.293 1125.43,234.382 1123.75,236.659 L1123.45,237.055 L1123.35,236.56 C1123.35,236.56 1122.07,233.689 1119.59,233.194 C1119.1,233.095 1118.6,233.095 1118.21,233.095 C1114.15,233.095 1111.97,237.253 1110.88,240.619 L1112.37,241.411 C1112.37,241.411 1114.05,236.065 1116.23,236.065 C1116.42,236.065 1116.52,236.065 1116.72,236.164 C1117.32,236.362 1117.51,236.857 1117.51,237.649 C1117.51,239.035 1116.72,241.411 1115.63,244.579 C1115.63,244.678 1111.97,255.667 1111.67,256.657 L1111.57,256.954 C1111.57,257.251 1111.67,257.449 1111.77,257.647 C1111.97,257.845 1112.17,258.043 1112.56,258.043 L1117.81,258.043 C1118.01,258.043 1118.5,258.043 1118.9,256.459 C1119.89,251.905 1124.05,236.659 1127.71,236.659 C1127.91,236.659 1128.21,236.758 1128.3,236.956 C1128.5,237.154 1128.6,237.55 1128.6,238.045 C1128.6,239.728 1127.61,242.896 1126.42,246.955 C1124.94,251.806 1123.45,256.459 1123.45,256.459 C1123.45,256.558 1123.45,256.657 1123.45,256.855 C1123.45,257.548 1123.65,258.043 1124.44,258.043 L1129.89,258.043 C1130.28,258.043 1130.78,257.944 1130.98,256.855 C1130.98,256.756 1131.08,256.459 1131.08,256.162 C1133.06,242.302 1136.22,238.144 1138.6,237.154 L1138.7,237.055 C1138.8,237.055 1138.8,237.055 1138.8,237.055 L1138.9,237.055 C1139,237.154 1139.1,237.154 1139.1,237.154 C1139.29,237.253 1139.59,237.55 1139.59,238.045 C1139.59,239.035 1139,242.995 1136.92,248.341 C1136.32,249.925 1136.03,251.41 1136.03,252.796 C1136.03,255.865 1137.61,258.142 1140.98,258.142 C1145.43,258.142 1147.11,254.578 1148.5,250.915 L1148.5,250.618 C1148.6,250.618 1148.6,250.519 1148.6,250.519 L1146.92,249.727 C1146.92,249.727 1145.83,252.4 1145.13,253.588 M1164.64,256.756 C1164.44,256.756 1164.04,256.756 1163.85,256.657 C1162.36,256.063 1161.96,254.281 1161.96,252.4 C1161.96,249.331 1163.05,245.767 1163.15,245.569 C1163.85,242.5 1167.61,235.57 1171.47,235.57 C1171.67,235.57 1171.96,235.57 1172.16,235.669 C1173.35,235.966 1173.55,237.847 1173.55,238.837 C1173.55,243.589 1170.08,254.479 1165.73,256.558 C1165.43,256.756 1164.93,256.756 1164.64,256.756"/>
<path class="Dynamic" d="M322.899,306.835 C320.226,306.835 317.751,309.31 317.751,311.983 C317.751,317.131 321.216,320.002 325.77,320.002 C328.938,320.002 331.215,319.012 333.69,316.537 C338.046,312.181 342.798,297.43 345.174,289.015 C346.065,285.847 346.956,282.778 347.649,280.501 L347.649,280.303 L354.777,280.303 C355.371,280.303 355.767,279.907 355.767,279.313 L355.767,277.135 C355.767,276.541 355.371,276.145 354.777,276.145 L348.936,276.145 L348.936,275.848 C351.708,265.75 352.5,263.968 353.985,262.78 C354.777,262.186 355.47,261.988 355.965,261.988 C356.163,261.988 356.361,262.087 356.46,262.087 C357.054,262.186 357.549,262.78 357.549,263.374 C357.549,263.869 357.351,264.364 356.955,264.562 C355.965,265.354 355.47,266.641 355.47,268.027 C355.47,268.522 355.569,268.918 355.668,269.413 C355.965,270.304 356.757,271.195 357.747,271.591 C358.143,271.789 358.836,271.987 359.529,271.987 C361.608,271.987 363.687,270.403 364.182,268.423 C364.38,267.928 364.38,267.334 364.38,266.74 C364.38,261.79 359.925,259.216 355.47,259.216 C346.263,259.216 342.204,268.621 339.729,275.947 L339.729,276.145 L332.205,276.145 C331.611,276.145 331.215,276.541 331.215,277.135 L331.215,279.313 C331.215,279.907 331.611,280.303 332.205,280.303 L338.343,280.303 L338.343,280.699 C337.353,284.659 336.561,288.025 335.868,291.292 C335.076,294.955 334.185,298.717 332.997,303.271 L332.7,304.459 C330.621,312.577 330.027,315.448 327.651,317.032 C327.156,317.329 326.562,317.527 325.968,317.527 C325.473,317.527 324.978,317.329 324.582,317.032 C324.186,316.735 324.087,316.438 324.087,315.943 C324.186,315.547 324.384,315.151 324.879,314.953 C326.76,314.161 327.354,312.379 327.354,310.795 C327.354,309.409 326.463,306.835 322.899,306.835 M327.849,296.539 C327.354,297.43 326.859,297.628 326.364,297.628 C326.166,297.628 326.067,297.628 325.869,297.529 C325.374,297.331 325.176,296.935 325.176,296.44 C325.176,295.648 326.463,290.995 326.859,290.104 C327.453,288.322 328.146,284.263 328.146,281.59 C328.146,281.095 328.146,280.6 328.047,280.204 C327.552,277.531 326.364,276.244 324.285,276.244 C321.711,276.244 318.939,278.125 317.652,279.808 L317.454,280.204 L317.256,279.709 C317.256,279.709 315.672,276.244 312.999,276.244 C310.227,276.244 308.148,277.333 306.465,279.61 L306.168,280.006 L306.069,279.511 C306.069,279.511 304.782,276.64 302.307,276.145 C301.812,276.046 301.317,276.046 300.921,276.046 C296.862,276.046 294.684,280.204 293.595,283.57 L295.08,284.362 C295.08,284.362 296.763,279.016 298.941,279.016 C299.139,279.016 299.238,279.016 299.436,279.115 C300.03,279.313 300.228,279.808 300.228,280.6 C300.228,281.986 299.436,284.362 298.347,287.53 C298.347,287.629 294.684,298.618 294.387,299.608 L294.288,299.905 C294.288,300.202 294.387,300.4 294.486,300.598 C294.684,300.796 294.882,300.994 295.278,300.994 L300.525,300.994 C300.723,300.994 301.218,300.994 301.614,299.41 C302.604,294.856 306.762,279.61 310.425,279.61 C310.623,279.61 310.92,279.709 311.019,279.907 C311.217,280.105 311.316,280.501 311.316,280.996 C311.316,282.679 310.326,285.847 309.138,289.906 C307.653,294.757 306.168,299.41 306.168,299.41 C306.168,299.509 306.168,299.608 306.168,299.806 C306.168,300.499 306.366,300.994 307.158,300.994 L312.603,300.994 C312.999,300.994 313.494,300.895 313.692,299.806 C313.692,299.707 313.791,299.41 313.791,299.113 C315.771,285.253 318.939,281.095 321.315,280.105 L321.414,280.006 C321.513,280.006 321.513,280.006 321.513,280.006 L321.612,280.006 C321.711,280.105 321.81,280.105 321.81,280.105 C322.008,280.204 322.305,280.501 322.305,280.996 C322.305,281.986 321.711,285.946 319.632,291.292 C319.038,292.876 318.741,294.361 318.741,295.747 C318.741,298.816 320.325,301.093 323.691,301.093 C328.146,301.093 329.829,297.529 331.215,293.866 L331.215,293.569 C331.314,293.569 331.314,293.47 331.314,293.47 L329.631,292.678 C329.631,292.678 328.542,295.351 327.849,296.539"/>
<path class="Beam" fill-rule="evenodd" d="M1162.29,90.5379 L1575.61,71.9379 L1575.61,84.3505 L1162.29,102.95 L1162.29,90.5379 "/>
</svg>
