<?xml version="1.0" encoding="utf-8"?>
<!-- Generator: Adobe Illustrator 18.0.0, SVG Export Plug-In . SVG Version: 6.00 Build 0)  -->
<!DOCTYPE svg PUBLIC "-//W3C//DTD SVG 1.1//EN" "http://www.w3.org/Graphics/SVG/1.1/DTD/svg11.dtd">
<svg version="1.1" id="Layer_1" xmlns="http://www.w3.org/2000/svg" xmlns:xlink="http://www.w3.org/1999/xlink" x="0px" y="0px"
	 viewBox="100.7 651.6 103.8 36" enable-background="new 100.7 651.6 103.8 36" xml:space="preserve">
<g>
	<path fill="#59D8E6" d="M194.7,682.2c-0.2-0.7-0.5-1.7-0.5-2.8h10.2v-1.3c0-5.3-2.3-9-6.5-9c-4.1,0-6.8,3.6-6.8,9v0.6
		c0,1.3,0.1,2.5,0.5,3.6C191.6,682.2,194.7,682.2,194.7,682.2z M198,671.7c2.2,0,3.2,1.9,3.4,5.3h-7.1
		C194.5,673.8,195.8,671.7,198,671.7z"/>
	<path fill="#D5FBFF" d="M141.2,671.9c-0.8-1.8-2.4-2.9-4.6-2.9c-3.6,0-6.2,3.2-6.2,9v0.6c0,5.8,2.6,9,6.2,9c2.2,0,3.6-1.1,4.6-2.9
		v2.4h3v-35.5h-3V671.9z M141.3,678.6c0,3.8-1.4,6.4-4,6.4c-2.6,0-4-2.5-4-6.4v-0.5c0-3.7,1.3-6.4,4-6.4c2.5,0,4,2.6,4,6.4V678.6z"
		/>
	<polyline fill="#D5FBFF" points="182.3,684.7 189.6,669.7 189.6,669.5 179.1,669.5 179.1,671.9 185.5,671.9 178.2,687 178.2,687.3 
		204.3,687.3 204.3,684.7 	"/>
	<polygon fill="#D5FBFF" points="112.5,669.5 109.3,669.5 103.7,678.1 103.7,651.6 100.7,651.6 100.7,687.3 103.7,687.3 
		103.7,679.6 109.5,687.3 113.1,687.3 106.5,678.6 	"/>
	<path fill="#D5FBFF" d="M154.1,669c-4.1,0-6.8,3.6-6.8,9v0.6c0,5.4,2.6,9,7.7,9c2.3,0,3.8-0.7,4.9-1.6l-1.2-2.3
		c-1,0.6-2,1.2-3.7,1.2c-2.9,0-4.3-2-4.6-5.5h10.2v-1.3C160.4,672.7,158.1,669,154.1,669z M150.3,677.1c0.2-3.2,1.6-5.3,3.7-5.3
		s3.2,1.9,3.4,5.3H150.3z"/>
	<path fill="#D5FBFF" d="M170.7,669c-2,0-3.6,1.1-4.3,2.6v-2.2h-3v17.8h3v-11.8c0-2.3,1.4-3.6,3.4-3.6c1.8,0,2.9,1.1,2.9,3.4v12h3
		v-12.4C175.8,671.1,173.6,669,170.7,669z"/>
	<path fill="#D5FBFF" d="M124.4,671.9c-1-1.7-2.3-2.9-4.4-2.9c-3.5,0-6.1,3.2-6.1,9v0.7c0,5.8,2.6,8.9,6.1,8.9
		c2.2,0,3.5-1.1,4.4-2.9v2.4h3v-17.6h-3V671.9z M124.5,678.6c0,3.7-1.3,6.4-3.7,6.4c-2.5,0-3.7-2.5-3.7-6.4V678
		c0-3.7,1.3-6.2,3.7-6.2c2.4,0,3.7,2.5,3.7,6.2V678.6z"/>
</g>
</svg>
